<?xml version="1.0" encoding="UTF-8" standalone="no"?>
<!DOCTYPE svg PUBLIC "-//W3C//DTD SVG 1.1//EN"
 "http://www.w3.org/Graphics/SVG/1.1/DTD/svg11.dtd">
<!-- Generated by graphviz version 2.47.3 (20210619.1520)
 -->
<!-- Title: dependencies Pages: 1 -->
<svg width="2161pt" height="174pt"
 viewBox="0.00 0.00 2161.00 173.80" xmlns="http://www.w3.org/2000/svg" xmlns:xlink="http://www.w3.org/1999/xlink">
<g id="graph0" class="graph" transform="scale(1 1) rotate(0) translate(4 169.8)">
<title>dependencies</title>
<polygon fill="white" stroke="transparent" points="-4,4 -4,-169.8 2157,-169.8 2157,4 -4,4"/>
<text text-anchor="middle" x="1076.5" y="-8.2" font-family="sans-serif" font-size="14.00">dependencies</text>
<g id="clust1" class="cluster">
<title>cluster_ChatModule</title>
<polygon fill="none" stroke="black" stroke-dasharray="1,5" points="8,-32.8 8,-157.8 2145,-157.8 2145,-32.8 8,-32.8"/>
</g>
<g id="clust2" class="cluster">
<title>cluster_ChatModule_declarations</title>
<polygon fill="none" stroke="black" points="588,-40.8 588,-92.8 2137,-92.8 2137,-40.8 588,-40.8"/>
</g>
<g id="clust13" class="cluster">
<title>cluster_ChatModule_imports</title>
<polygon fill="none" stroke="black" points="16,-40.8 16,-92.8 580,-92.8 580,-40.8 16,-40.8"/>
</g>
<!-- ChatContainerComponent -->
<g id="node1" class="node">
<title>ChatContainerComponent</title>
<polygon fill="#ffffb3" stroke="black" points="2129.48,-84.8 1966.52,-84.8 1966.52,-48.8 2129.48,-48.8 2129.48,-84.8"/>
<text text-anchor="middle" x="2048" y="-62.6" font-family="Times,serif" font-size="14.00">ChatContainerComponent</text>
</g>
<!-- ChatModule -->
<g id="node11" class="node">
<title>ChatModule</title>
<polygon fill="#8dd3c7" stroke="black" points="1081.99,-149.8 1078.99,-153.8 1057.99,-153.8 1054.99,-149.8 996.01,-149.8 996.01,-113.8 1081.99,-113.8 1081.99,-149.8"/>
<text text-anchor="middle" x="1039" y="-127.6" font-family="Times,serif" font-size="14.00">ChatModule</text>
</g>
<!-- ChatContainerComponent&#45;&gt;ChatModule -->
<g id="edge1" class="edge">
<title>ChatContainerComponent&#45;&gt;ChatModule</title>
<path fill="none" stroke="black" d="M2048,-84.89C2048,-107.93 2048,-144.8 2048,-144.8 2048,-144.8 1092.03,-144.8 1092.03,-144.8"/>
<polygon fill="black" stroke="black" points="1092.03,-141.3 1082.03,-144.8 1092.03,-148.3 1092.03,-141.3"/>
</g>
<!-- MessagesContainerComponent -->
<g id="node2" class="node">
<title>MessagesContainerComponent</title>
<polygon fill="#ffffb3" stroke="black" points="1948.46,-84.8 1757.54,-84.8 1757.54,-48.8 1948.46,-48.8 1948.46,-84.8"/>
<text text-anchor="middle" x="1853" y="-62.6" font-family="Times,serif" font-size="14.00">MessagesContainerComponent</text>
</g>
<!-- MessagesContainerComponent&#45;&gt;ChatModule -->
<g id="edge2" class="edge">
<title>MessagesContainerComponent&#45;&gt;ChatModule</title>
<path fill="none" stroke="black" d="M1853,-84.84C1853,-106.46 1853,-139.8 1853,-139.8 1853,-139.8 1092.19,-139.8 1092.19,-139.8"/>
<polygon fill="black" stroke="black" points="1092.19,-136.3 1082.19,-139.8 1092.19,-143.3 1092.19,-136.3"/>
</g>
<!-- ChatPanelComponent -->
<g id="node3" class="node">
<title>ChatPanelComponent</title>
<polygon fill="#ffffb3" stroke="black" points="1739.38,-84.8 1600.62,-84.8 1600.62,-48.8 1739.38,-48.8 1739.38,-84.8"/>
<text text-anchor="middle" x="1670" y="-62.6" font-family="Times,serif" font-size="14.00">ChatPanelComponent</text>
</g>
<!-- ChatPanelComponent&#45;&gt;ChatModule -->
<g id="edge3" class="edge">
<title>ChatPanelComponent&#45;&gt;ChatModule</title>
<path fill="none" stroke="black" d="M1670,-85.02C1670,-105.17 1670,-134.8 1670,-134.8 1670,-134.8 1092.37,-134.8 1092.37,-134.8"/>
<polygon fill="black" stroke="black" points="1092.37,-131.3 1082.37,-134.8 1092.37,-138.3 1092.37,-131.3"/>
</g>
<!-- MessageComponent -->
<g id="node4" class="node">
<title>MessageComponent</title>
<polygon fill="#ffffb3" stroke="black" points="1582.31,-84.8 1451.69,-84.8 1451.69,-48.8 1582.31,-48.8 1582.31,-84.8"/>
<text text-anchor="middle" x="1517" y="-62.6" font-family="Times,serif" font-size="14.00">MessageComponent</text>
</g>
<!-- MessageComponent&#45;&gt;ChatModule -->
<g id="edge4" class="edge">
<title>MessageComponent&#45;&gt;ChatModule</title>
<path fill="none" stroke="black" d="M1517,-85.02C1517,-103.63 1517,-129.8 1517,-129.8 1517,-129.8 1092.26,-129.8 1092.26,-129.8"/>
<polygon fill="black" stroke="black" points="1092.26,-126.3 1082.26,-129.8 1092.26,-133.3 1092.26,-126.3"/>
</g>
<!-- CompleteComponent -->
<g id="node5" class="node">
<title>CompleteComponent</title>
<polygon fill="#ffffb3" stroke="black" points="1433.77,-84.8 1298.23,-84.8 1298.23,-48.8 1433.77,-48.8 1433.77,-84.8"/>
<text text-anchor="middle" x="1366" y="-62.6" font-family="Times,serif" font-size="14.00">CompleteComponent</text>
</g>
<!-- CompleteComponent&#45;&gt;ChatModule -->
<g id="edge5" class="edge">
<title>CompleteComponent&#45;&gt;ChatModule</title>
<path fill="none" stroke="black" d="M1366,-84.83C1366,-101.86 1366,-124.8 1366,-124.8 1366,-124.8 1092.09,-124.8 1092.09,-124.8"/>
<polygon fill="black" stroke="black" points="1092.09,-121.3 1082.09,-124.8 1092.09,-128.3 1092.09,-121.3"/>
</g>
<!-- RateComponent -->
<g id="node6" class="node">
<title>RateComponent</title>
<polygon fill="#ffffb3" stroke="black" points="1280.49,-84.8 1173.51,-84.8 1173.51,-48.8 1280.49,-48.8 1280.49,-84.8"/>
<text text-anchor="middle" x="1227" y="-62.6" font-family="Times,serif" font-size="14.00">RateComponent</text>
</g>
<!-- RateComponent&#45;&gt;ChatModule -->
<g id="edge6" class="edge">
<title>RateComponent&#45;&gt;ChatModule</title>
<path fill="none" stroke="black" d="M1227,-85.04C1227,-100.37 1227,-119.8 1227,-119.8 1227,-119.8 1092.13,-119.8 1092.13,-119.8"/>
<polygon fill="black" stroke="black" points="1092.13,-116.3 1082.13,-119.8 1092.13,-123.3 1092.13,-116.3"/>
</g>
<!-- DateComponent -->
<g id="node7" class="node">
<title>DateComponent</title>
<polygon fill="#ffffb3" stroke="black" points="1155.76,-84.8 1048.24,-84.8 1048.24,-48.8 1155.76,-48.8 1155.76,-84.8"/>
<text text-anchor="middle" x="1102" y="-62.6" font-family="Times,serif" font-size="14.00">DateComponent</text>
</g>
<!-- DateComponent&#45;&gt;ChatModule -->
<g id="edge7" class="edge">
<title>DateComponent&#45;&gt;ChatModule</title>
<path fill="none" stroke="black" d="M1065.06,-84.91C1065.06,-84.91 1065.06,-103.79 1065.06,-103.79"/>
<polygon fill="black" stroke="black" points="1061.56,-103.79 1065.06,-113.79 1068.56,-103.79 1061.56,-103.79"/>
</g>
<!-- MapComponent -->
<g id="node8" class="node">
<title>MapComponent</title>
<polygon fill="#ffffb3" stroke="black" points="1030.49,-84.8 923.51,-84.8 923.51,-48.8 1030.49,-48.8 1030.49,-84.8"/>
<text text-anchor="middle" x="977" y="-62.6" font-family="Times,serif" font-size="14.00">MapComponent</text>
</g>
<!-- MapComponent&#45;&gt;ChatModule -->
<g id="edge8" class="edge">
<title>MapComponent&#45;&gt;ChatModule</title>
<path fill="none" stroke="black" d="M1013.25,-84.91C1013.25,-84.91 1013.25,-103.79 1013.25,-103.79"/>
<polygon fill="black" stroke="black" points="1009.75,-103.79 1013.25,-113.79 1016.75,-103.79 1009.75,-103.79"/>
</g>
<!-- ScrollBottomDirective -->
<g id="node9" class="node">
<title>ScrollBottomDirective</title>
<polygon fill="#ffffb3" stroke="black" points="905.53,-84.8 762.47,-84.8 762.47,-48.8 905.53,-48.8 905.53,-84.8"/>
<text text-anchor="middle" x="834" y="-62.6" font-family="Times,serif" font-size="14.00">ScrollBottomDirective</text>
</g>
<!-- ScrollBottomDirective&#45;&gt;ChatModule -->
<g id="edge9" class="edge">
<title>ScrollBottomDirective&#45;&gt;ChatModule</title>
<path fill="none" stroke="black" d="M834,-85.04C834,-100.37 834,-119.8 834,-119.8 834,-119.8 985.52,-119.8 985.52,-119.8"/>
<polygon fill="black" stroke="black" points="985.52,-123.3 995.52,-119.8 985.52,-116.3 985.52,-123.3"/>
</g>
<!-- ChatHeaderComponent -->
<g id="node10" class="node">
<title>ChatHeaderComponent</title>
<polygon fill="#ffffb3" stroke="black" points="744.19,-84.8 595.81,-84.8 595.81,-48.8 744.19,-48.8 744.19,-84.8"/>
<text text-anchor="middle" x="670" y="-62.6" font-family="Times,serif" font-size="14.00">ChatHeaderComponent</text>
</g>
<!-- ChatHeaderComponent&#45;&gt;ChatModule -->
<g id="edge10" class="edge">
<title>ChatHeaderComponent&#45;&gt;ChatModule</title>
<path fill="none" stroke="black" d="M670,-84.83C670,-101.86 670,-124.8 670,-124.8 670,-124.8 985.95,-124.8 985.95,-124.8"/>
<polygon fill="black" stroke="black" points="985.95,-128.3 995.95,-124.8 985.95,-121.3 985.95,-128.3"/>
</g>
<!-- CommonModule -->
<g id="node12" class="node">
<title>CommonModule</title>
<polygon fill="#8dd3c7" stroke="black" points="571.67,-84.8 568.67,-88.8 547.67,-88.8 544.67,-84.8 460.33,-84.8 460.33,-48.8 571.67,-48.8 571.67,-84.8"/>
<text text-anchor="middle" x="516" y="-62.6" font-family="Times,serif" font-size="14.00">CommonModule</text>
</g>
<!-- CommonModule&#45;&gt;ChatModule -->
<g id="edge11" class="edge">
<title>CommonModule&#45;&gt;ChatModule</title>
<path fill="none" stroke="black" d="M516,-85.02C516,-103.63 516,-129.8 516,-129.8 516,-129.8 985.76,-129.8 985.76,-129.8"/>
<polygon fill="black" stroke="black" points="985.76,-133.3 995.76,-129.8 985.76,-126.3 985.76,-133.3"/>
</g>
<!-- ChatRoutingModule -->
<g id="node13" class="node">
<title>ChatRoutingModule</title>
<polygon fill="#8dd3c7" stroke="black" points="442.61,-84.8 439.61,-88.8 418.61,-88.8 415.61,-84.8 311.39,-84.8 311.39,-48.8 442.61,-48.8 442.61,-84.8"/>
<text text-anchor="middle" x="377" y="-62.6" font-family="Times,serif" font-size="14.00">ChatRoutingModule</text>
</g>
<!-- ChatRoutingModule&#45;&gt;ChatModule -->
<g id="edge12" class="edge">
<title>ChatRoutingModule&#45;&gt;ChatModule</title>
<path fill="none" stroke="black" d="M377,-85.02C377,-105.17 377,-134.8 377,-134.8 377,-134.8 985.82,-134.8 985.82,-134.8"/>
<polygon fill="black" stroke="black" points="985.82,-138.3 995.82,-134.8 985.82,-131.3 985.82,-138.3"/>
</g>
<!-- MaterialModule -->
<g id="node14" class="node">
<title>MaterialModule</title>
<polygon fill="#8dd3c7" stroke="black" points="293.47,-84.8 290.47,-88.8 269.47,-88.8 266.47,-84.8 186.53,-84.8 186.53,-48.8 293.47,-48.8 293.47,-84.8"/>
<text text-anchor="middle" x="240" y="-62.6" font-family="Times,serif" font-size="14.00">MaterialModule</text>
</g>
<!-- MaterialModule&#45;&gt;ChatModule -->
<g id="edge13" class="edge">
<title>MaterialModule&#45;&gt;ChatModule</title>
<path fill="none" stroke="black" d="M240,-84.84C240,-106.46 240,-139.8 240,-139.8 240,-139.8 985.76,-139.8 985.76,-139.8"/>
<polygon fill="black" stroke="black" points="985.76,-143.3 995.76,-139.8 985.76,-136.3 985.76,-143.3"/>
</g>
<!-- ReactiveFormsModule -->
<g id="node15" class="node">
<title>ReactiveFormsModule</title>
<polygon fill="#8dd3c7" stroke="black" points="168.3,-84.8 165.3,-88.8 144.3,-88.8 141.3,-84.8 23.7,-84.8 23.7,-48.8 168.3,-48.8 168.3,-84.8"/>
<text text-anchor="middle" x="96" y="-62.6" font-family="Times,serif" font-size="14.00">ReactiveFormsModule</text>
</g>
<!-- ReactiveFormsModule&#45;&gt;ChatModule -->
<g id="edge14" class="edge">
<title>ReactiveFormsModule&#45;&gt;ChatModule</title>
<path fill="none" stroke="black" d="M96,-84.89C96,-107.93 96,-144.8 96,-144.8 96,-144.8 985.72,-144.8 985.72,-144.8"/>
<polygon fill="black" stroke="black" points="985.72,-148.3 995.72,-144.8 985.72,-141.3 985.72,-148.3"/>
</g>
</g>
</svg>
