<?xml version="1.0" encoding="UTF-8" standalone="no"?>
<!DOCTYPE svg PUBLIC "-//W3C//DTD SVG 1.1//EN"
 "http://www.w3.org/Graphics/SVG/1.1/DTD/svg11.dtd">
<!-- Generated by graphviz version 2.47.3 (20210619.1520)
 -->
<!-- Title: dependencies Pages: 1 -->
<svg width="2319pt" height="174pt"
 viewBox="0.00 0.00 2319.00 173.80" xmlns="http://www.w3.org/2000/svg" xmlns:xlink="http://www.w3.org/1999/xlink">
<g id="graph0" class="graph" transform="scale(1 1) rotate(0) translate(4 169.8)">
<title>dependencies</title>
<polygon fill="white" stroke="transparent" points="-4,4 -4,-169.8 2315,-169.8 2315,4 -4,4"/>
<text text-anchor="middle" x="1155.5" y="-8.2" font-family="sans-serif" font-size="14.00">dependencies</text>
<g id="clust1" class="cluster">
<title>cluster_ChatModule</title>
<polygon fill="none" stroke="black" stroke-dasharray="1,5" points="8,-32.8 8,-157.8 2303,-157.8 2303,-32.8 8,-32.8"/>
</g>
<g id="clust14" class="cluster">
<title>cluster_ChatModule_imports</title>
<polygon fill="none" stroke="black" points="1731,-40.8 1731,-92.8 2295,-92.8 2295,-40.8 1731,-40.8"/>
</g>
<g id="clust2" class="cluster">
<title>cluster_ChatModule_declarations</title>
<polygon fill="none" stroke="black" points="16,-40.8 16,-92.8 1723,-92.8 1723,-40.8 16,-40.8"/>
</g>
<!-- ChatContainerComponent -->
<g id="node1" class="node">
<title>ChatContainerComponent</title>
<polygon fill="#ffffb3" stroke="black" points="1715.48,-84.8 1552.52,-84.8 1552.52,-48.8 1715.48,-48.8 1715.48,-84.8"/>
<text text-anchor="middle" x="1634" y="-62.6" font-family="Times,serif" font-size="14.00">ChatContainerComponent</text>
</g>
<!-- ChatModule -->
<g id="node12" class="node">
<title>ChatModule</title>
<polygon fill="#8dd3c7" stroke="black" points="1145.99,-149.8 1142.99,-153.8 1121.99,-153.8 1118.99,-149.8 1060.01,-149.8 1060.01,-113.8 1145.99,-113.8 1145.99,-149.8"/>
<text text-anchor="middle" x="1103" y="-127.6" font-family="Times,serif" font-size="14.00">ChatModule</text>
</g>
<!-- ChatContainerComponent&#45;&gt;ChatModule -->
<g id="edge1" class="edge">
<title>ChatContainerComponent&#45;&gt;ChatModule</title>
<path fill="none" stroke="black" d="M1634,-85.1C1634,-103.07 1634,-127.8 1634,-127.8 1634,-127.8 1156,-127.8 1156,-127.8"/>
<polygon fill="black" stroke="black" points="1156,-124.3 1146,-127.8 1156,-131.3 1156,-124.3"/>
</g>
<!-- MessagesContainerComponent -->
<g id="node2" class="node">
<title>MessagesContainerComponent</title>
<polygon fill="#ffffb3" stroke="black" points="1534.46,-84.8 1343.54,-84.8 1343.54,-48.8 1534.46,-48.8 1534.46,-84.8"/>
<text text-anchor="middle" x="1439" y="-62.6" font-family="Times,serif" font-size="14.00">MessagesContainerComponent</text>
</g>
<!-- MessagesContainerComponent&#45;&gt;ChatModule -->
<g id="edge2" class="edge">
<title>MessagesContainerComponent&#45;&gt;ChatModule</title>
<path fill="none" stroke="black" d="M1439,-84.83C1439,-101.2 1439,-122.8 1439,-122.8 1439,-122.8 1156.24,-122.8 1156.24,-122.8"/>
<polygon fill="black" stroke="black" points="1156.24,-119.3 1146.24,-122.8 1156.24,-126.3 1156.24,-119.3"/>
</g>
<!-- ChatPanelComponent -->
<g id="node3" class="node">
<title>ChatPanelComponent</title>
<polygon fill="#ffffb3" stroke="black" points="1325.38,-84.8 1186.62,-84.8 1186.62,-48.8 1325.38,-48.8 1325.38,-84.8"/>
<text text-anchor="middle" x="1256" y="-62.6" font-family="Times,serif" font-size="14.00">ChatPanelComponent</text>
</g>
<!-- ChatPanelComponent&#45;&gt;ChatModule -->
<g id="edge3" class="edge">
<title>ChatPanelComponent&#45;&gt;ChatModule</title>
<path fill="none" stroke="black" d="M1256,-84.99C1256,-99.98 1256,-118.8 1256,-118.8 1256,-118.8 1156.03,-118.8 1156.03,-118.8"/>
<polygon fill="black" stroke="black" points="1156.03,-115.3 1146.03,-118.8 1156.03,-122.3 1156.03,-115.3"/>
</g>
<!-- MessageComponent -->
<g id="node4" class="node">
<title>MessageComponent</title>
<polygon fill="#ffffb3" stroke="black" points="1168.31,-84.8 1037.69,-84.8 1037.69,-48.8 1168.31,-48.8 1168.31,-84.8"/>
<text text-anchor="middle" x="1103" y="-62.6" font-family="Times,serif" font-size="14.00">MessageComponent</text>
</g>
<!-- MessageComponent&#45;&gt;ChatModule -->
<g id="edge4" class="edge">
<title>MessageComponent&#45;&gt;ChatModule</title>
<path fill="none" stroke="black" d="M1103,-84.91C1103,-84.91 1103,-103.79 1103,-103.79"/>
<polygon fill="black" stroke="black" points="1099.5,-103.79 1103,-113.79 1106.5,-103.79 1099.5,-103.79"/>
</g>
<!-- CompleteComponent -->
<g id="node5" class="node">
<title>CompleteComponent</title>
<polygon fill="#ffffb3" stroke="black" points="1019.77,-84.8 884.23,-84.8 884.23,-48.8 1019.77,-48.8 1019.77,-84.8"/>
<text text-anchor="middle" x="952" y="-62.6" font-family="Times,serif" font-size="14.00">CompleteComponent</text>
</g>
<!-- CompleteComponent&#45;&gt;ChatModule -->
<g id="edge5" class="edge">
<title>CompleteComponent&#45;&gt;ChatModule</title>
<path fill="none" stroke="black" d="M952,-84.99C952,-99.98 952,-118.8 952,-118.8 952,-118.8 1049.73,-118.8 1049.73,-118.8"/>
<polygon fill="black" stroke="black" points="1049.73,-122.3 1059.73,-118.8 1049.73,-115.3 1049.73,-122.3"/>
</g>
<!-- RateComponent -->
<g id="node6" class="node">
<title>RateComponent</title>
<polygon fill="#ffffb3" stroke="black" points="866.49,-84.8 759.51,-84.8 759.51,-48.8 866.49,-48.8 866.49,-84.8"/>
<text text-anchor="middle" x="813" y="-62.6" font-family="Times,serif" font-size="14.00">RateComponent</text>
</g>
<!-- RateComponent&#45;&gt;ChatModule -->
<g id="edge6" class="edge">
<title>RateComponent&#45;&gt;ChatModule</title>
<path fill="none" stroke="black" d="M813,-84.83C813,-101.2 813,-122.8 813,-122.8 813,-122.8 1049.9,-122.8 1049.9,-122.8"/>
<polygon fill="black" stroke="black" points="1049.9,-126.3 1059.9,-122.8 1049.9,-119.3 1049.9,-126.3"/>
</g>
<!-- DateComponent -->
<g id="node7" class="node">
<title>DateComponent</title>
<polygon fill="#ffffb3" stroke="black" points="741.76,-84.8 634.24,-84.8 634.24,-48.8 741.76,-48.8 741.76,-84.8"/>
<text text-anchor="middle" x="688" y="-62.6" font-family="Times,serif" font-size="14.00">DateComponent</text>
</g>
<!-- DateComponent&#45;&gt;ChatModule -->
<g id="edge7" class="edge">
<title>DateComponent&#45;&gt;ChatModule</title>
<path fill="none" stroke="black" d="M688,-85.1C688,-103.07 688,-127.8 688,-127.8 688,-127.8 1049.76,-127.8 1049.76,-127.8"/>
<polygon fill="black" stroke="black" points="1049.76,-131.3 1059.76,-127.8 1049.76,-124.3 1049.76,-131.3"/>
</g>
<!-- MapComponent -->
<g id="node8" class="node">
<title>MapComponent</title>
<polygon fill="#ffffb3" stroke="black" points="616.49,-84.8 509.51,-84.8 509.51,-48.8 616.49,-48.8 616.49,-84.8"/>
<text text-anchor="middle" x="563" y="-62.6" font-family="Times,serif" font-size="14.00">MapComponent</text>
</g>
<!-- MapComponent&#45;&gt;ChatModule -->
<g id="edge8" class="edge">
<title>MapComponent&#45;&gt;ChatModule</title>
<path fill="none" stroke="black" d="M563,-84.91C563,-104.14 563,-131.8 563,-131.8 563,-131.8 1049.72,-131.8 1049.72,-131.8"/>
<polygon fill="black" stroke="black" points="1049.72,-135.3 1059.72,-131.8 1049.72,-128.3 1049.72,-135.3"/>
</g>
<!-- ScrollBottomDirective -->
<g id="node9" class="node">
<title>ScrollBottomDirective</title>
<polygon fill="#ffffb3" stroke="black" points="491.53,-84.8 348.47,-84.8 348.47,-48.8 491.53,-48.8 491.53,-84.8"/>
<text text-anchor="middle" x="420" y="-62.6" font-family="Times,serif" font-size="14.00">ScrollBottomDirective</text>
</g>
<!-- ScrollBottomDirective&#45;&gt;ChatModule -->
<g id="edge9" class="edge">
<title>ScrollBottomDirective&#45;&gt;ChatModule</title>
<path fill="none" stroke="black" d="M420,-84.83C420,-105.57 420,-136.8 420,-136.8 420,-136.8 1049.76,-136.8 1049.76,-136.8"/>
<polygon fill="black" stroke="black" points="1049.76,-140.3 1059.76,-136.8 1049.76,-133.3 1049.76,-140.3"/>
</g>
<!-- ChatHeaderComponent -->
<g id="node10" class="node">
<title>ChatHeaderComponent</title>
<polygon fill="#ffffb3" stroke="black" points="330.19,-84.8 181.81,-84.8 181.81,-48.8 330.19,-48.8 330.19,-84.8"/>
<text text-anchor="middle" x="256" y="-62.6" font-family="Times,serif" font-size="14.00">ChatHeaderComponent</text>
</g>
<!-- ChatHeaderComponent&#45;&gt;ChatModule -->
<g id="edge10" class="edge">
<title>ChatHeaderComponent&#45;&gt;ChatModule</title>
<path fill="none" stroke="black" d="M256,-85.09C256,-107.01 256,-140.8 256,-140.8 256,-140.8 1049.83,-140.8 1049.83,-140.8"/>
<polygon fill="black" stroke="black" points="1049.83,-144.3 1059.83,-140.8 1049.83,-137.3 1049.83,-144.3"/>
</g>
<!-- ResponsesComponent -->
<g id="node11" class="node">
<title>ResponsesComponent</title>
<polygon fill="#ffffb3" stroke="black" points="164.43,-84.8 23.57,-84.8 23.57,-48.8 164.43,-48.8 164.43,-84.8"/>
<text text-anchor="middle" x="94" y="-62.6" font-family="Times,serif" font-size="14.00">ResponsesComponent</text>
</g>
<!-- ResponsesComponent&#45;&gt;ChatModule -->
<g id="edge11" class="edge">
<title>ResponsesComponent&#45;&gt;ChatModule</title>
<path fill="none" stroke="black" d="M94,-85.12C94,-108.46 94,-145.8 94,-145.8 94,-145.8 1049.97,-145.8 1049.97,-145.8"/>
<polygon fill="black" stroke="black" points="1049.97,-149.3 1059.97,-145.8 1049.97,-142.3 1049.97,-149.3"/>
</g>
<!-- CommonModule -->
<g id="node13" class="node">
<title>CommonModule</title>
<polygon fill="#8dd3c7" stroke="black" points="2286.67,-84.8 2283.67,-88.8 2262.67,-88.8 2259.67,-84.8 2175.33,-84.8 2175.33,-48.8 2286.67,-48.8 2286.67,-84.8"/>
<text text-anchor="middle" x="2231" y="-62.6" font-family="Times,serif" font-size="14.00">CommonModule</text>
</g>
<!-- CommonModule&#45;&gt;ChatModule -->
<g id="edge12" class="edge">
<title>CommonModule&#45;&gt;ChatModule</title>
<path fill="none" stroke="black" d="M2231,-85.12C2231,-108.46 2231,-145.8 2231,-145.8 2231,-145.8 1156.18,-145.8 1156.18,-145.8"/>
<polygon fill="black" stroke="black" points="1156.18,-142.3 1146.18,-145.8 1156.18,-149.3 1156.18,-142.3"/>
</g>
<!-- ChatRoutingModule -->
<g id="node14" class="node">
<title>ChatRoutingModule</title>
<polygon fill="#8dd3c7" stroke="black" points="2157.61,-84.8 2154.61,-88.8 2133.61,-88.8 2130.61,-84.8 2026.39,-84.8 2026.39,-48.8 2157.61,-48.8 2157.61,-84.8"/>
<text text-anchor="middle" x="2092" y="-62.6" font-family="Times,serif" font-size="14.00">ChatRoutingModule</text>
</g>
<!-- ChatRoutingModule&#45;&gt;ChatModule -->
<g id="edge13" class="edge">
<title>ChatRoutingModule&#45;&gt;ChatModule</title>
<path fill="none" stroke="black" d="M2092,-85.09C2092,-107.01 2092,-140.8 2092,-140.8 2092,-140.8 1156.13,-140.8 1156.13,-140.8"/>
<polygon fill="black" stroke="black" points="1156.13,-137.3 1146.13,-140.8 1156.13,-144.3 1156.13,-137.3"/>
</g>
<!-- MaterialModule -->
<g id="node15" class="node">
<title>MaterialModule</title>
<polygon fill="#8dd3c7" stroke="black" points="2008.47,-84.8 2005.47,-88.8 1984.47,-88.8 1981.47,-84.8 1901.53,-84.8 1901.53,-48.8 2008.47,-48.8 2008.47,-84.8"/>
<text text-anchor="middle" x="1955" y="-62.6" font-family="Times,serif" font-size="14.00">MaterialModule</text>
</g>
<!-- MaterialModule&#45;&gt;ChatModule -->
<g id="edge14" class="edge">
<title>MaterialModule&#45;&gt;ChatModule</title>
<path fill="none" stroke="black" d="M1955,-84.83C1955,-105.57 1955,-136.8 1955,-136.8 1955,-136.8 1156.13,-136.8 1156.13,-136.8"/>
<polygon fill="black" stroke="black" points="1156.13,-133.3 1146.13,-136.8 1156.13,-140.3 1156.13,-133.3"/>
</g>
<!-- ReactiveFormsModule -->
<g id="node16" class="node">
<title>ReactiveFormsModule</title>
<polygon fill="#8dd3c7" stroke="black" points="1883.3,-84.8 1880.3,-88.8 1859.3,-88.8 1856.3,-84.8 1738.7,-84.8 1738.7,-48.8 1883.3,-48.8 1883.3,-84.8"/>
<text text-anchor="middle" x="1811" y="-62.6" font-family="Times,serif" font-size="14.00">ReactiveFormsModule</text>
</g>
<!-- ReactiveFormsModule&#45;&gt;ChatModule -->
<g id="edge15" class="edge">
<title>ReactiveFormsModule&#45;&gt;ChatModule</title>
<path fill="none" stroke="black" d="M1811,-84.91C1811,-104.14 1811,-131.8 1811,-131.8 1811,-131.8 1156.22,-131.8 1156.22,-131.8"/>
<polygon fill="black" stroke="black" points="1156.22,-128.3 1146.22,-131.8 1156.22,-135.3 1156.22,-128.3"/>
</g>
</g>
</svg>
