<?xml version="1.0" encoding="UTF-8" standalone="no"?>
<!DOCTYPE svg PUBLIC "-//W3C//DTD SVG 1.1//EN"
 "http://www.w3.org/Graphics/SVG/1.1/DTD/svg11.dtd">
<!-- Generated by graphviz version 2.47.3 (20210619.1520)
 -->
<!-- Title: dependencies Pages: 1 -->
<svg width="1321pt" height="247pt"
 viewBox="0.00 0.00 1321.00 246.80" xmlns="http://www.w3.org/2000/svg" xmlns:xlink="http://www.w3.org/1999/xlink">
<g id="graph0" class="graph" transform="scale(1 1) rotate(0) translate(4 242.8)">
<title>dependencies</title>
<polygon fill="white" stroke="transparent" points="-4,4 -4,-242.8 1317,-242.8 1317,4 -4,4"/>
<text text-anchor="middle" x="656.5" y="-8.2" font-family="sans-serif" font-size="14.00">dependencies</text>
<g id="clust1" class="cluster">
<title>cluster_MaterialModule</title>
<polygon fill="none" stroke="black" stroke-dasharray="1,5" points="8,-32.8 8,-230.8 1305,-230.8 1305,-32.8 8,-32.8"/>
</g>
<g id="clust3" class="cluster">
<title>cluster_MaterialModule_imports</title>
<polygon fill="none" stroke="black" points="32,-40.8 32,-92.8 1282,-92.8 1282,-40.8 32,-40.8"/>
</g>
<g id="clust4" class="cluster">
<title>cluster_MaterialModule_exports</title>
<polygon fill="none" stroke="black" points="16,-170.8 16,-222.8 1297,-222.8 1297,-170.8 16,-170.8"/>
</g>
<!-- MatInputModule -->
<g id="node1" class="node">
<title>MatInputModule</title>
<polygon fill="#8dd3c7" stroke="black" points="1273.65,-84.8 1270.65,-88.8 1249.65,-88.8 1246.65,-84.8 1162.35,-84.8 1162.35,-48.8 1273.65,-48.8 1273.65,-84.8"/>
<text text-anchor="middle" x="1218" y="-62.6" font-family="Times,serif" font-size="14.00">MatInputModule</text>
</g>
<!-- MaterialModule -->
<g id="node10" class="node">
<title>MaterialModule</title>
<polygon fill="#8dd3c7" stroke="black" points="735.47,-149.8 732.47,-153.8 711.47,-153.8 708.47,-149.8 628.53,-149.8 628.53,-113.8 735.47,-113.8 735.47,-149.8"/>
<text text-anchor="middle" x="682" y="-127.6" font-family="Times,serif" font-size="14.00">MaterialModule</text>
</g>
<!-- MatInputModule&#45;&gt;MaterialModule -->
<g id="edge1" class="edge">
<title>MatInputModule&#45;&gt;MaterialModule</title>
<path fill="none" stroke="black" d="M1167.8,-85.02C1167.8,-103.63 1167.8,-129.8 1167.8,-129.8 1167.8,-129.8 745.85,-129.8 745.85,-129.8"/>
<polygon fill="black" stroke="black" points="745.85,-126.3 735.85,-129.8 745.85,-133.3 745.85,-126.3"/>
</g>
<!-- MatCardModule -->
<g id="node2" class="node">
<title>MatCardModule</title>
<polygon fill="#8dd3c7" stroke="black" points="1144.81,-84.8 1141.81,-88.8 1120.81,-88.8 1117.81,-84.8 1035.19,-84.8 1035.19,-48.8 1144.81,-48.8 1144.81,-84.8"/>
<text text-anchor="middle" x="1090" y="-62.6" font-family="Times,serif" font-size="14.00">MatCardModule</text>
</g>
<!-- MatCardModule&#45;&gt;MaterialModule -->
<g id="edge2" class="edge">
<title>MatCardModule&#45;&gt;MaterialModule</title>
<path fill="none" stroke="black" d="M1038.97,-84.82C1038.97,-102.17 1038.97,-125.8 1038.97,-125.8 1038.97,-125.8 745.83,-125.8 745.83,-125.8"/>
<polygon fill="black" stroke="black" points="745.83,-122.3 735.83,-125.8 745.83,-129.3 745.83,-122.3"/>
</g>
<!-- MatButtonModule -->
<g id="node3" class="node">
<title>MatButtonModule</title>
<polygon fill="#8dd3c7" stroke="black" points="1017.22,-84.8 1014.22,-88.8 993.22,-88.8 990.22,-84.8 896.78,-84.8 896.78,-48.8 1017.22,-48.8 1017.22,-84.8"/>
<text text-anchor="middle" x="957" y="-62.6" font-family="Times,serif" font-size="14.00">MatButtonModule</text>
</g>
<!-- MatButtonModule&#45;&gt;MaterialModule -->
<g id="edge3" class="edge">
<title>MatButtonModule&#45;&gt;MaterialModule</title>
<path fill="none" stroke="black" d="M978.45,-84.81C978.45,-100.85 978.45,-121.8 978.45,-121.8 978.45,-121.8 745.69,-121.8 745.69,-121.8"/>
<polygon fill="black" stroke="black" points="745.69,-118.3 735.69,-121.8 745.69,-125.3 745.69,-118.3"/>
</g>
<!-- MatDividerModule -->
<g id="node4" class="node">
<title>MatDividerModule</title>
<polygon fill="#8dd3c7" stroke="black" points="878.36,-84.8 875.36,-88.8 854.36,-88.8 851.36,-84.8 753.64,-84.8 753.64,-48.8 878.36,-48.8 878.36,-84.8"/>
<text text-anchor="middle" x="816" y="-62.6" font-family="Times,serif" font-size="14.00">MatDividerModule</text>
</g>
<!-- MatDividerModule&#45;&gt;MaterialModule -->
<g id="edge4" class="edge">
<title>MatDividerModule&#45;&gt;MaterialModule</title>
<path fill="none" stroke="black" d="M837.23,-84.92C837.23,-99.58 837.23,-117.8 837.23,-117.8 837.23,-117.8 745.86,-117.8 745.86,-117.8"/>
<polygon fill="black" stroke="black" points="745.86,-114.3 735.86,-117.8 745.86,-121.3 745.86,-114.3"/>
</g>
<!-- MatIconModule -->
<g id="node5" class="node">
<title>MatIconModule</title>
<polygon fill="#8dd3c7" stroke="black" points="735.47,-84.8 732.47,-88.8 711.47,-88.8 708.47,-84.8 628.53,-84.8 628.53,-48.8 735.47,-48.8 735.47,-84.8"/>
<text text-anchor="middle" x="682" y="-62.6" font-family="Times,serif" font-size="14.00">MatIconModule</text>
</g>
<!-- MatIconModule&#45;&gt;MaterialModule -->
<g id="edge5" class="edge">
<title>MatIconModule&#45;&gt;MaterialModule</title>
<path fill="none" stroke="black" d="M682,-84.91C682,-84.91 682,-103.79 682,-103.79"/>
<polygon fill="black" stroke="black" points="678.5,-103.79 682,-113.79 685.5,-103.79 678.5,-103.79"/>
</g>
<!-- MatTooltipModule -->
<g id="node6" class="node">
<title>MatTooltipModule</title>
<polygon fill="#8dd3c7" stroke="black" points="610.82,-84.8 607.82,-88.8 586.82,-88.8 583.82,-84.8 487.18,-84.8 487.18,-48.8 610.82,-48.8 610.82,-84.8"/>
<text text-anchor="middle" x="549" y="-62.6" font-family="Times,serif" font-size="14.00">MatTooltipModule</text>
</g>
<!-- MatTooltipModule&#45;&gt;MaterialModule -->
<g id="edge6" class="edge">
<title>MatTooltipModule&#45;&gt;MaterialModule</title>
<path fill="none" stroke="black" d="M568.05,-84.92C568.05,-99.58 568.05,-117.8 568.05,-117.8 568.05,-117.8 618.36,-117.8 618.36,-117.8"/>
<polygon fill="black" stroke="black" points="618.36,-121.3 628.36,-117.8 618.36,-114.3 618.36,-121.3"/>
</g>
<!-- MatDatepickerModule -->
<g id="node7" class="node">
<title>MatDatepickerModule</title>
<polygon fill="#8dd3c7" stroke="black" points="469.51,-84.8 466.51,-88.8 445.51,-88.8 442.51,-84.8 326.49,-84.8 326.49,-48.8 469.51,-48.8 469.51,-84.8"/>
<text text-anchor="middle" x="398" y="-62.6" font-family="Times,serif" font-size="14.00">MatDatepickerModule</text>
</g>
<!-- MatDatepickerModule&#45;&gt;MaterialModule -->
<g id="edge7" class="edge">
<title>MatDatepickerModule&#45;&gt;MaterialModule</title>
<path fill="none" stroke="black" d="M417.75,-84.81C417.75,-100.85 417.75,-121.8 417.75,-121.8 417.75,-121.8 618.53,-121.8 618.53,-121.8"/>
<polygon fill="black" stroke="black" points="618.53,-125.3 628.53,-121.8 618.53,-118.3 618.53,-125.3"/>
</g>
<!-- MatNativeDateModule -->
<g id="node8" class="node">
<title>MatNativeDateModule</title>
<polygon fill="#8dd3c7" stroke="black" points="307.84,-84.8 304.84,-88.8 283.84,-88.8 280.84,-84.8 162.16,-84.8 162.16,-48.8 307.84,-48.8 307.84,-84.8"/>
<text text-anchor="middle" x="235" y="-62.6" font-family="Times,serif" font-size="14.00">MatNativeDateModule</text>
</g>
<!-- MatNativeDateModule&#45;&gt;MaterialModule -->
<g id="edge8" class="edge">
<title>MatNativeDateModule&#45;&gt;MaterialModule</title>
<path fill="none" stroke="black" d="M303.3,-84.82C303.3,-102.17 303.3,-125.8 303.3,-125.8 303.3,-125.8 618.14,-125.8 618.14,-125.8"/>
<polygon fill="black" stroke="black" points="618.14,-129.3 628.14,-125.8 618.14,-122.3 618.14,-129.3"/>
</g>
<!-- MatListModule -->
<g id="node9" class="node">
<title>MatListModule</title>
<polygon fill="#8dd3c7" stroke="black" points="143.88,-84.8 140.88,-88.8 119.88,-88.8 116.88,-84.8 40.12,-84.8 40.12,-48.8 143.88,-48.8 143.88,-84.8"/>
<text text-anchor="middle" x="92" y="-62.6" font-family="Times,serif" font-size="14.00">MatListModule</text>
</g>
<!-- MatListModule&#45;&gt;MaterialModule -->
<g id="edge9" class="edge">
<title>MatListModule&#45;&gt;MaterialModule</title>
<path fill="none" stroke="black" d="M137.81,-85.02C137.81,-103.63 137.81,-129.8 137.81,-129.8 137.81,-129.8 618.33,-129.8 618.33,-129.8"/>
<polygon fill="black" stroke="black" points="618.33,-133.3 628.33,-129.8 618.33,-126.3 618.33,-133.3"/>
</g>
<!-- MatInputModule  -->
<g id="node11" class="node">
<title>MatInputModule </title>
<polygon fill="#fb8072" stroke="black" points="1288.65,-214.8 1173.35,-214.8 1173.35,-178.8 1288.65,-178.8 1288.65,-214.8"/>
<text text-anchor="middle" x="1231" y="-192.6" font-family="Times,serif" font-size="14.00">MatInputModule </text>
</g>
<!-- MaterialModule&#45;&gt;MatInputModule  -->
<g id="edge10" class="edge">
<title>MaterialModule&#45;&gt;MatInputModule </title>
<path fill="none" stroke="black" stroke-dasharray="5,2" d="M735.91,-133.8C872.91,-133.8 1223.62,-133.8 1223.62,-133.8 1223.62,-133.8 1223.62,-168.58 1223.62,-168.58"/>
<polygon fill="black" stroke="black" points="1220.13,-168.58 1223.62,-178.58 1227.13,-168.58 1220.13,-168.58"/>
</g>
<!-- MatCardModule  -->
<g id="node12" class="node">
<title>MatCardModule </title>
<polygon fill="#fb8072" stroke="black" points="1155.31,-214.8 1042.69,-214.8 1042.69,-178.8 1155.31,-178.8 1155.31,-214.8"/>
<text text-anchor="middle" x="1099" y="-192.6" font-family="Times,serif" font-size="14.00">MatCardModule </text>
</g>
<!-- MaterialModule&#45;&gt;MatCardModule  -->
<g id="edge11" class="edge">
<title>MaterialModule&#45;&gt;MatCardModule </title>
<path fill="none" stroke="black" stroke-dasharray="5,2" d="M735.81,-137.8C847.39,-137.8 1093.62,-137.8 1093.62,-137.8 1093.62,-137.8 1093.62,-168.78 1093.62,-168.78"/>
<polygon fill="black" stroke="black" points="1090.13,-168.78 1093.62,-178.78 1097.13,-168.78 1090.13,-168.78"/>
</g>
<!-- MatButtonModule  -->
<g id="node13" class="node">
<title>MatButtonModule </title>
<polygon fill="#fb8072" stroke="black" points="1024.72,-214.8 901.28,-214.8 901.28,-178.8 1024.72,-178.8 1024.72,-214.8"/>
<text text-anchor="middle" x="963" y="-192.6" font-family="Times,serif" font-size="14.00">MatButtonModule </text>
</g>
<!-- MaterialModule&#45;&gt;MatButtonModule  -->
<g id="edge12" class="edge">
<title>MaterialModule&#45;&gt;MatButtonModule </title>
<path fill="none" stroke="black" stroke-dasharray="5,2" d="M735.73,-141.8C811.28,-141.8 939.8,-141.8 939.8,-141.8 939.8,-141.8 939.8,-168.79 939.8,-168.79"/>
<polygon fill="black" stroke="black" points="936.3,-168.79 939.8,-178.79 943.3,-168.79 936.3,-168.79"/>
</g>
<!-- MatDividerModule  -->
<g id="node14" class="node">
<title>MatDividerModule </title>
<polygon fill="#fb8072" stroke="black" points="883.36,-214.8 754.64,-214.8 754.64,-178.8 883.36,-178.8 883.36,-214.8"/>
<text text-anchor="middle" x="819" y="-192.6" font-family="Times,serif" font-size="14.00">MatDividerModule </text>
</g>
<!-- MaterialModule&#45;&gt;MatDividerModule  -->
<g id="edge13" class="edge">
<title>MaterialModule&#45;&gt;MatDividerModule </title>
<path fill="none" stroke="black" stroke-dasharray="5,2" d="M735.67,-145.8C765.25,-145.8 796.02,-145.8 796.02,-145.8 796.02,-145.8 796.02,-168.68 796.02,-168.68"/>
<polygon fill="black" stroke="black" points="792.52,-168.68 796.02,-178.68 799.52,-168.68 792.52,-168.68"/>
</g>
<!-- MatIconModule  -->
<g id="node15" class="node">
<title>MatIconModule </title>
<polygon fill="#fb8072" stroke="black" points="737.48,-214.8 626.52,-214.8 626.52,-178.8 737.48,-178.8 737.48,-214.8"/>
<text text-anchor="middle" x="682" y="-192.6" font-family="Times,serif" font-size="14.00">MatIconModule </text>
</g>
<!-- MaterialModule&#45;&gt;MatIconModule  -->
<g id="edge14" class="edge">
<title>MaterialModule&#45;&gt;MatIconModule </title>
<path fill="none" stroke="black" stroke-dasharray="5,2" d="M682,-149.91C682,-149.91 682,-168.79 682,-168.79"/>
<polygon fill="black" stroke="black" points="678.5,-168.79 682,-178.79 685.5,-168.79 678.5,-168.79"/>
</g>
<!-- MatTooltipModule  -->
<g id="node16" class="node">
<title>MatTooltipModule </title>
<polygon fill="#fb8072" stroke="black" points="608.32,-214.8 481.68,-214.8 481.68,-178.8 608.32,-178.8 608.32,-214.8"/>
<text text-anchor="middle" x="545" y="-192.6" font-family="Times,serif" font-size="14.00">MatTooltipModule </text>
</g>
<!-- MaterialModule&#45;&gt;MatTooltipModule  -->
<g id="edge15" class="edge">
<title>MaterialModule&#45;&gt;MatTooltipModule </title>
<path fill="none" stroke="black" stroke-dasharray="5,2" d="M628.46,-145.8C583.9,-145.8 527.7,-145.8 527.7,-145.8 527.7,-145.8 527.7,-168.68 527.7,-168.68"/>
<polygon fill="black" stroke="black" points="524.2,-168.68 527.7,-178.68 531.2,-168.68 524.2,-168.68"/>
</g>
<!-- MatDatepickerModule  -->
<g id="node17" class="node">
<title>MatDatepickerModule </title>
<polygon fill="#fb8072" stroke="black" points="463.51,-214.8 316.49,-214.8 316.49,-178.8 463.51,-178.8 463.51,-214.8"/>
<text text-anchor="middle" x="390" y="-192.6" font-family="Times,serif" font-size="14.00">MatDatepickerModule </text>
</g>
<!-- MaterialModule&#45;&gt;MatDatepickerModule  -->
<g id="edge16" class="edge">
<title>MaterialModule&#45;&gt;MatDatepickerModule </title>
<path fill="none" stroke="black" stroke-dasharray="5,2" d="M628.36,-141.8C539.63,-141.8 372,-141.8 372,-141.8 372,-141.8 372,-168.79 372,-168.79"/>
<polygon fill="black" stroke="black" points="368.5,-168.79 372,-178.79 375.5,-168.79 368.5,-168.79"/>
</g>
<!-- MatNativeDateModule  -->
<g id="node18" class="node">
<title>MatNativeDateModule </title>
<polygon fill="#fb8072" stroke="black" points="298.84,-214.8 149.16,-214.8 149.16,-178.8 298.84,-178.8 298.84,-214.8"/>
<text text-anchor="middle" x="224" y="-192.6" font-family="Times,serif" font-size="14.00">MatNativeDateModule </text>
</g>
<!-- MaterialModule&#45;&gt;MatNativeDateModule  -->
<g id="edge17" class="edge">
<title>MaterialModule&#45;&gt;MatNativeDateModule </title>
<path fill="none" stroke="black" stroke-dasharray="5,2" d="M628.42,-137.8C508.79,-137.8 230.38,-137.8 230.38,-137.8 230.38,-137.8 230.38,-168.78 230.38,-168.78"/>
<polygon fill="black" stroke="black" points="226.88,-168.78 230.38,-178.78 233.88,-168.78 226.88,-168.78"/>
</g>
<!-- MatListModule  -->
<g id="node19" class="node">
<title>MatListModule </title>
<polygon fill="#fb8072" stroke="black" points="131.88,-214.8 24.12,-214.8 24.12,-178.8 131.88,-178.8 131.88,-214.8"/>
<text text-anchor="middle" x="78" y="-192.6" font-family="Times,serif" font-size="14.00">MatListModule </text>
</g>
<!-- MaterialModule&#45;&gt;MatListModule  -->
<g id="edge18" class="edge">
<title>MaterialModule&#45;&gt;MatListModule </title>
<path fill="none" stroke="black" stroke-dasharray="5,2" d="M628.31,-133.8C481.78,-133.8 85.88,-133.8 85.88,-133.8 85.88,-133.8 85.88,-168.58 85.88,-168.58"/>
<polygon fill="black" stroke="black" points="82.38,-168.58 85.88,-178.58 89.38,-168.58 82.38,-168.58"/>
</g>
</g>
</svg>
