<?xml version="1.0" encoding="UTF-8" standalone="no"?>
<!DOCTYPE svg PUBLIC "-//W3C//DTD SVG 1.1//EN"
 "http://www.w3.org/Graphics/SVG/1.1/DTD/svg11.dtd">
<!-- Generated by graphviz version 2.47.3 (20210619.1520)
 -->
<!-- Title: dependencies Pages: 1 -->
<svg width="1196pt" height="247pt"
 viewBox="0.00 0.00 1196.00 246.80" xmlns="http://www.w3.org/2000/svg" xmlns:xlink="http://www.w3.org/1999/xlink">
<g id="graph0" class="graph" transform="scale(1 1) rotate(0) translate(4 242.8)">
<title>dependencies</title>
<polygon fill="white" stroke="transparent" points="-4,4 -4,-242.8 1192,-242.8 1192,4 -4,4"/>
<text text-anchor="middle" x="594" y="-8.2" font-family="sans-serif" font-size="14.00">dependencies</text>
<g id="clust1" class="cluster">
<title>cluster_MaterialModule</title>
<polygon fill="none" stroke="black" stroke-dasharray="1,5" points="8,-32.8 8,-230.8 1180,-230.8 1180,-32.8 8,-32.8"/>
</g>
<g id="clust3" class="cluster">
<title>cluster_MaterialModule_imports</title>
<polygon fill="none" stroke="black" points="33,-40.8 33,-92.8 1161,-92.8 1161,-40.8 33,-40.8"/>
</g>
<g id="clust4" class="cluster">
<title>cluster_MaterialModule_exports</title>
<polygon fill="none" stroke="black" points="16,-170.8 16,-222.8 1172,-222.8 1172,-170.8 16,-170.8"/>
</g>
<!-- MatInputModule -->
<g id="node1" class="node">
<title>MatInputModule</title>
<polygon fill="#8dd3c7" stroke="black" points="1152.65,-84.8 1149.65,-88.8 1128.65,-88.8 1125.65,-84.8 1041.35,-84.8 1041.35,-48.8 1152.65,-48.8 1152.65,-84.8"/>
<text text-anchor="middle" x="1097" y="-62.6" font-family="Times,serif" font-size="14.00">MatInputModule</text>
</g>
<!-- MaterialModule -->
<g id="node9" class="node">
<title>MaterialModule</title>
<polygon fill="#8dd3c7" stroke="black" points="620.47,-149.8 617.47,-153.8 596.47,-153.8 593.47,-149.8 513.53,-149.8 513.53,-113.8 620.47,-113.8 620.47,-149.8"/>
<text text-anchor="middle" x="567" y="-127.6" font-family="Times,serif" font-size="14.00">MaterialModule</text>
</g>
<!-- MatInputModule&#45;&gt;MaterialModule -->
<g id="edge1" class="edge">
<title>MatInputModule&#45;&gt;MaterialModule</title>
<path fill="none" stroke="black" d="M1044.8,-84.91C1044.8,-104.14 1044.8,-131.8 1044.8,-131.8 1044.8,-131.8 630.88,-131.8 630.88,-131.8"/>
<polygon fill="black" stroke="black" points="630.88,-128.3 620.88,-131.8 630.88,-135.3 630.88,-128.3"/>
</g>
<!-- MatCardModule -->
<g id="node2" class="node">
<title>MatCardModule</title>
<polygon fill="#8dd3c7" stroke="black" points="1023.81,-84.8 1020.81,-88.8 999.81,-88.8 996.81,-84.8 914.19,-84.8 914.19,-48.8 1023.81,-48.8 1023.81,-84.8"/>
<text text-anchor="middle" x="969" y="-62.6" font-family="Times,serif" font-size="14.00">MatCardModule</text>
</g>
<!-- MatCardModule&#45;&gt;MaterialModule -->
<g id="edge2" class="edge">
<title>MatCardModule&#45;&gt;MaterialModule</title>
<path fill="none" stroke="black" d="M988.3,-85.1C988.3,-103.07 988.3,-127.8 988.3,-127.8 988.3,-127.8 630.79,-127.8 630.79,-127.8"/>
<polygon fill="black" stroke="black" points="630.79,-124.3 620.79,-127.8 630.79,-131.3 630.79,-124.3"/>
</g>
<!-- MatButtonModule -->
<g id="node3" class="node">
<title>MatButtonModule</title>
<polygon fill="#8dd3c7" stroke="black" points="896.22,-84.8 893.22,-88.8 872.22,-88.8 869.22,-84.8 775.78,-84.8 775.78,-48.8 896.22,-48.8 896.22,-84.8"/>
<text text-anchor="middle" x="836" y="-62.6" font-family="Times,serif" font-size="14.00">MatButtonModule</text>
</g>
<!-- MatButtonModule&#45;&gt;MaterialModule -->
<g id="edge3" class="edge">
<title>MatButtonModule&#45;&gt;MaterialModule</title>
<path fill="none" stroke="black" d="M856.12,-84.83C856.12,-101.2 856.12,-122.8 856.12,-122.8 856.12,-122.8 630.7,-122.8 630.7,-122.8"/>
<polygon fill="black" stroke="black" points="630.7,-119.3 620.7,-122.8 630.7,-126.3 630.7,-119.3"/>
</g>
<!-- MatDividerModule -->
<g id="node4" class="node">
<title>MatDividerModule</title>
<polygon fill="#8dd3c7" stroke="black" points="757.36,-84.8 754.36,-88.8 733.36,-88.8 730.36,-84.8 632.64,-84.8 632.64,-48.8 757.36,-48.8 757.36,-84.8"/>
<text text-anchor="middle" x="695" y="-62.6" font-family="Times,serif" font-size="14.00">MatDividerModule</text>
</g>
<!-- MatDividerModule&#45;&gt;MaterialModule -->
<g id="edge4" class="edge">
<title>MatDividerModule&#45;&gt;MaterialModule</title>
<path fill="none" stroke="black" d="M695,-84.99C695,-99.98 695,-118.8 695,-118.8 695,-118.8 630.54,-118.8 630.54,-118.8"/>
<polygon fill="black" stroke="black" points="630.54,-115.3 620.54,-118.8 630.54,-122.3 630.54,-115.3"/>
</g>
<!-- MatIconModule -->
<g id="node5" class="node">
<title>MatIconModule</title>
<polygon fill="#8dd3c7" stroke="black" points="614.47,-84.8 611.47,-88.8 590.47,-88.8 587.47,-84.8 507.53,-84.8 507.53,-48.8 614.47,-48.8 614.47,-84.8"/>
<text text-anchor="middle" x="561" y="-62.6" font-family="Times,serif" font-size="14.00">MatIconModule</text>
</g>
<!-- MatIconModule&#45;&gt;MaterialModule -->
<g id="edge5" class="edge">
<title>MatIconModule&#45;&gt;MaterialModule</title>
<path fill="none" stroke="black" d="M564,-84.91C564,-84.91 564,-103.79 564,-103.79"/>
<polygon fill="black" stroke="black" points="560.5,-103.79 564,-113.79 567.5,-103.79 560.5,-103.79"/>
</g>
<!-- MatTooltipModule -->
<g id="node6" class="node">
<title>MatTooltipModule</title>
<polygon fill="#8dd3c7" stroke="black" points="489.82,-84.8 486.82,-88.8 465.82,-88.8 462.82,-84.8 366.18,-84.8 366.18,-48.8 489.82,-48.8 489.82,-84.8"/>
<text text-anchor="middle" x="428" y="-62.6" font-family="Times,serif" font-size="14.00">MatTooltipModule</text>
</g>
<!-- MatTooltipModule&#45;&gt;MaterialModule -->
<g id="edge6" class="edge">
<title>MatTooltipModule&#45;&gt;MaterialModule</title>
<path fill="none" stroke="black" d="M444.39,-85.04C444.39,-100.37 444.39,-119.8 444.39,-119.8 444.39,-119.8 503.22,-119.8 503.22,-119.8"/>
<polygon fill="black" stroke="black" points="503.22,-123.3 513.22,-119.8 503.22,-116.3 503.22,-123.3"/>
</g>
<!-- MatDatepickerModule -->
<g id="node7" class="node">
<title>MatDatepickerModule</title>
<polygon fill="#8dd3c7" stroke="black" points="348.51,-84.8 345.51,-88.8 324.51,-88.8 321.51,-84.8 205.49,-84.8 205.49,-48.8 348.51,-48.8 348.51,-84.8"/>
<text text-anchor="middle" x="277" y="-62.6" font-family="Times,serif" font-size="14.00">MatDatepickerModule</text>
</g>
<!-- MatDatepickerModule&#45;&gt;MaterialModule -->
<g id="edge7" class="edge">
<title>MatDatepickerModule&#45;&gt;MaterialModule</title>
<path fill="none" stroke="black" d="M343.63,-84.83C343.63,-101.86 343.63,-124.8 343.63,-124.8 343.63,-124.8 503.5,-124.8 503.5,-124.8"/>
<polygon fill="black" stroke="black" points="503.5,-128.3 513.5,-124.8 503.5,-121.3 503.5,-128.3"/>
</g>
<!-- MatNativeDateModule -->
<g id="node8" class="node">
<title>MatNativeDateModule</title>
<polygon fill="#8dd3c7" stroke="black" points="186.84,-84.8 183.84,-88.8 162.84,-88.8 159.84,-84.8 41.16,-84.8 41.16,-48.8 186.84,-48.8 186.84,-84.8"/>
<text text-anchor="middle" x="114" y="-62.6" font-family="Times,serif" font-size="14.00">MatNativeDateModule</text>
</g>
<!-- MatNativeDateModule&#45;&gt;MaterialModule -->
<g id="edge8" class="edge">
<title>MatNativeDateModule&#45;&gt;MaterialModule</title>
<path fill="none" stroke="black" d="M180.3,-85.02C180.3,-103.63 180.3,-129.8 180.3,-129.8 180.3,-129.8 503.23,-129.8 503.23,-129.8"/>
<polygon fill="black" stroke="black" points="503.23,-133.3 513.23,-129.8 503.23,-126.3 503.23,-133.3"/>
</g>
<!-- MatInputModule  -->
<g id="node10" class="node">
<title>MatInputModule </title>
<polygon fill="#fb8072" stroke="black" points="1163.65,-214.8 1048.35,-214.8 1048.35,-178.8 1163.65,-178.8 1163.65,-214.8"/>
<text text-anchor="middle" x="1106" y="-192.6" font-family="Times,serif" font-size="14.00">MatInputModule </text>
</g>
<!-- MaterialModule&#45;&gt;MatInputModule  -->
<g id="edge9" class="edge">
<title>MaterialModule&#45;&gt;MatInputModule </title>
<path fill="none" stroke="black" stroke-dasharray="5,2" d="M620.61,-136.8C755.93,-136.8 1100.62,-136.8 1100.62,-136.8 1100.62,-136.8 1100.62,-168.8 1100.62,-168.8"/>
<polygon fill="black" stroke="black" points="1097.13,-168.8 1100.62,-178.8 1104.13,-168.8 1097.13,-168.8"/>
</g>
<!-- MatCardModule  -->
<g id="node11" class="node">
<title>MatCardModule </title>
<polygon fill="#fb8072" stroke="black" points="1030.31,-214.8 917.69,-214.8 917.69,-178.8 1030.31,-178.8 1030.31,-214.8"/>
<text text-anchor="middle" x="974" y="-192.6" font-family="Times,serif" font-size="14.00">MatCardModule </text>
</g>
<!-- MaterialModule&#45;&gt;MatCardModule  -->
<g id="edge10" class="edge">
<title>MaterialModule&#45;&gt;MatCardModule </title>
<path fill="none" stroke="black" stroke-dasharray="5,2" d="M620.66,-140.8C726.71,-140.8 952.95,-140.8 952.95,-140.8 952.95,-140.8 952.95,-168.77 952.95,-168.77"/>
<polygon fill="black" stroke="black" points="949.45,-168.77 952.95,-178.77 956.45,-168.77 949.45,-168.77"/>
</g>
<!-- MatButtonModule  -->
<g id="node12" class="node">
<title>MatButtonModule </title>
<polygon fill="#fb8072" stroke="black" points="899.72,-214.8 776.28,-214.8 776.28,-178.8 899.72,-178.8 899.72,-214.8"/>
<text text-anchor="middle" x="838" y="-192.6" font-family="Times,serif" font-size="14.00">MatButtonModule </text>
</g>
<!-- MaterialModule&#45;&gt;MatButtonModule  -->
<g id="edge11" class="edge">
<title>MaterialModule&#45;&gt;MatButtonModule </title>
<path fill="none" stroke="black" stroke-dasharray="5,2" d="M620.75,-145.8C693.99,-145.8 816.13,-145.8 816.13,-145.8 816.13,-145.8 816.13,-168.68 816.13,-168.68"/>
<polygon fill="black" stroke="black" points="812.63,-168.68 816.13,-178.68 819.63,-168.68 812.63,-168.68"/>
</g>
<!-- MatDividerModule  -->
<g id="node13" class="node">
<title>MatDividerModule </title>
<polygon fill="#fb8072" stroke="black" points="758.36,-214.8 629.64,-214.8 629.64,-178.8 758.36,-178.8 758.36,-214.8"/>
<text text-anchor="middle" x="694" y="-192.6" font-family="Times,serif" font-size="14.00">MatDividerModule </text>
</g>
<!-- MaterialModule&#45;&gt;MatDividerModule  -->
<g id="edge12" class="edge">
<title>MaterialModule&#45;&gt;MatDividerModule </title>
<path fill="none" stroke="black" stroke-dasharray="5,2" d="M616.36,-149.91C616.36,-169.14 616.36,-196.8 616.36,-196.8 616.36,-196.8 619.53,-196.8 619.53,-196.8"/>
<polygon fill="black" stroke="black" points="619.53,-200.3 629.53,-196.8 619.53,-193.3 619.53,-200.3"/>
</g>
<!-- MatIconModule  -->
<g id="node14" class="node">
<title>MatIconModule </title>
<polygon fill="#fb8072" stroke="black" points="612.48,-214.8 501.52,-214.8 501.52,-178.8 612.48,-178.8 612.48,-214.8"/>
<text text-anchor="middle" x="557" y="-192.6" font-family="Times,serif" font-size="14.00">MatIconModule </text>
</g>
<!-- MaterialModule&#45;&gt;MatIconModule  -->
<g id="edge13" class="edge">
<title>MaterialModule&#45;&gt;MatIconModule </title>
<path fill="none" stroke="black" stroke-dasharray="5,2" d="M562.88,-149.91C562.88,-149.91 562.88,-168.79 562.88,-168.79"/>
<polygon fill="black" stroke="black" points="559.38,-168.79 562.88,-178.79 566.38,-168.79 559.38,-168.79"/>
</g>
<!-- MatTooltipModule  -->
<g id="node15" class="node">
<title>MatTooltipModule </title>
<polygon fill="#fb8072" stroke="black" points="483.32,-214.8 356.68,-214.8 356.68,-178.8 483.32,-178.8 483.32,-214.8"/>
<text text-anchor="middle" x="420" y="-192.6" font-family="Times,serif" font-size="14.00">MatTooltipModule </text>
</g>
<!-- MaterialModule&#45;&gt;MatTooltipModule  -->
<g id="edge14" class="edge">
<title>MaterialModule&#45;&gt;MatTooltipModule </title>
<path fill="none" stroke="black" stroke-dasharray="5,2" d="M513.18,-144.8C466.16,-144.8 405.36,-144.8 405.36,-144.8 405.36,-144.8 405.36,-168.61 405.36,-168.61"/>
<polygon fill="black" stroke="black" points="401.86,-168.61 405.36,-178.61 408.86,-168.61 401.86,-168.61"/>
</g>
<!-- MatDatepickerModule  -->
<g id="node16" class="node">
<title>MatDatepickerModule </title>
<polygon fill="#fb8072" stroke="black" points="338.51,-214.8 191.49,-214.8 191.49,-178.8 338.51,-178.8 338.51,-214.8"/>
<text text-anchor="middle" x="265" y="-192.6" font-family="Times,serif" font-size="14.00">MatDatepickerModule </text>
</g>
<!-- MaterialModule&#45;&gt;MatDatepickerModule  -->
<g id="edge15" class="edge">
<title>MaterialModule&#45;&gt;MatDatepickerModule </title>
<path fill="none" stroke="black" stroke-dasharray="5,2" d="M513.21,-139.8C428.09,-139.8 271.88,-139.8 271.88,-139.8 271.88,-139.8 271.88,-168.76 271.88,-168.76"/>
<polygon fill="black" stroke="black" points="268.38,-168.76 271.88,-178.76 275.38,-168.76 268.38,-168.76"/>
</g>
<!-- MatNativeDateModule  -->
<g id="node17" class="node">
<title>MatNativeDateModule </title>
<polygon fill="#fb8072" stroke="black" points="173.84,-214.8 24.16,-214.8 24.16,-178.8 173.84,-178.8 173.84,-214.8"/>
<text text-anchor="middle" x="99" y="-192.6" font-family="Times,serif" font-size="14.00">MatNativeDateModule </text>
</g>
<!-- MaterialModule&#45;&gt;MatNativeDateModule  -->
<g id="edge16" class="edge">
<title>MaterialModule&#45;&gt;MatNativeDateModule </title>
<path fill="none" stroke="black" stroke-dasharray="5,2" d="M513.38,-134.8C392.13,-134.8 107.38,-134.8 107.38,-134.8 107.38,-134.8 107.38,-168.53 107.38,-168.53"/>
<polygon fill="black" stroke="black" points="103.88,-168.53 107.37,-178.53 110.88,-168.53 103.88,-168.53"/>
</g>
</g>
</svg>
