<?xml version="1.0" encoding="UTF-8" standalone="no"?>
<!DOCTYPE svg PUBLIC "-//W3C//DTD SVG 1.1//EN"
 "http://www.w3.org/Graphics/SVG/1.1/DTD/svg11.dtd">
<!-- Generated by graphviz version 2.47.3 (20210619.1520)
 -->
<!-- Title: dependencies Pages: 1 -->
<svg width="755pt" height="247pt"
 viewBox="0.00 0.00 755.00 246.80" xmlns="http://www.w3.org/2000/svg" xmlns:xlink="http://www.w3.org/1999/xlink">
<g id="graph0" class="graph" transform="scale(1 1) rotate(0) translate(4 242.8)">
<title>dependencies</title>
<polygon fill="white" stroke="transparent" points="-4,4 -4,-242.8 751,-242.8 751,4 -4,4"/>
<text text-anchor="middle" x="373.5" y="-8.2" font-family="sans-serif" font-size="14.00">dependencies</text>
<g id="clust1" class="cluster">
<title>cluster_AppModule</title>
<polygon fill="none" stroke="black" stroke-dasharray="1,5" points="8,-32.8 8,-230.8 739,-230.8 739,-32.8 8,-32.8"/>
</g>
<g id="clust2" class="cluster">
<title>cluster_AppModule_declarations</title>
<polygon fill="none" stroke="black" points="609,-40.8 609,-92.8 731,-92.8 731,-40.8 609,-40.8"/>
</g>
<g id="clust6" class="cluster">
<title>cluster_AppModule_bootstrap</title>
<polygon fill="none" stroke="black" points="342,-170.8 342,-222.8 466,-222.8 466,-170.8 342,-170.8"/>
</g>
<g id="clust4" class="cluster">
<title>cluster_AppModule_imports</title>
<polygon fill="none" stroke="black" points="16,-40.8 16,-92.8 601,-92.8 601,-40.8 16,-40.8"/>
</g>
<!-- AppComponent -->
<g id="node1" class="node">
<title>AppComponent</title>
<polygon fill="#ffffb3" stroke="black" points="722.94,-84.8 617.06,-84.8 617.06,-48.8 722.94,-48.8 722.94,-84.8"/>
<text text-anchor="middle" x="670" y="-62.6" font-family="Times,serif" font-size="14.00">AppComponent</text>
</g>
<!-- AppModule -->
<g id="node2" class="node">
<title>AppModule</title>
<polygon fill="#8dd3c7" stroke="black" points="445.66,-149.8 442.66,-153.8 421.66,-153.8 418.66,-149.8 362.34,-149.8 362.34,-113.8 445.66,-113.8 445.66,-149.8"/>
<text text-anchor="middle" x="404" y="-127.6" font-family="Times,serif" font-size="14.00">AppModule</text>
</g>
<!-- AppComponent&#45;&gt;AppModule -->
<g id="edge1" class="edge">
<title>AppComponent&#45;&gt;AppModule</title>
<path fill="none" stroke="black" d="M670,-85.08C670,-106.12 670,-137.8 670,-137.8 670,-137.8 455.86,-137.8 455.86,-137.8"/>
<polygon fill="black" stroke="black" points="455.86,-134.3 445.86,-137.8 455.86,-141.3 455.86,-134.3"/>
</g>
<!-- AppComponent  -->
<g id="node7" class="node">
<title>AppComponent </title>
<polygon fill="#80b1d3" stroke="black" points="458.44,-214.8 349.56,-214.8 349.56,-178.8 458.44,-178.8 458.44,-214.8"/>
<text text-anchor="middle" x="404" y="-192.6" font-family="Times,serif" font-size="14.00">AppComponent </text>
</g>
<!-- AppModule&#45;&gt;AppComponent  -->
<g id="edge6" class="edge">
<title>AppModule&#45;&gt;AppComponent </title>
<path fill="none" stroke="black" stroke-dasharray="1,5" d="M404,-149.91C404,-149.91 404,-168.79 404,-168.79"/>
<polygon fill="black" stroke="black" points="400.5,-168.79 404,-178.79 407.5,-168.79 400.5,-168.79"/>
</g>
<!-- BrowserModule -->
<g id="node3" class="node">
<title>BrowserModule</title>
<polygon fill="#8dd3c7" stroke="black" points="593.47,-84.8 590.47,-88.8 569.47,-88.8 566.47,-84.8 486.53,-84.8 486.53,-48.8 593.47,-48.8 593.47,-84.8"/>
<text text-anchor="middle" x="540" y="-62.6" font-family="Times,serif" font-size="14.00">BrowserModule</text>
</g>
<!-- BrowserModule&#45;&gt;AppModule -->
<g id="edge2" class="edge">
<title>BrowserModule&#45;&gt;AppModule</title>
<path fill="none" stroke="black" d="M540,-84.82C540,-102.17 540,-125.8 540,-125.8 540,-125.8 455.91,-125.8 455.91,-125.8"/>
<polygon fill="black" stroke="black" points="455.91,-122.3 445.91,-125.8 455.91,-129.3 455.91,-122.3"/>
</g>
<!-- AppRoutingModule -->
<g id="node4" class="node">
<title>AppRoutingModule</title>
<polygon fill="#8dd3c7" stroke="black" points="468.27,-84.8 465.27,-88.8 444.27,-88.8 441.27,-84.8 339.73,-84.8 339.73,-48.8 468.27,-48.8 468.27,-84.8"/>
<text text-anchor="middle" x="404" y="-62.6" font-family="Times,serif" font-size="14.00">AppRoutingModule</text>
</g>
<!-- AppRoutingModule&#45;&gt;AppModule -->
<g id="edge3" class="edge">
<title>AppRoutingModule&#45;&gt;AppModule</title>
<path fill="none" stroke="black" d="M404,-84.91C404,-84.91 404,-103.79 404,-103.79"/>
<polygon fill="black" stroke="black" points="400.5,-103.79 404,-113.79 407.5,-103.79 400.5,-103.79"/>
</g>
<!-- BrowserAnimationsModule -->
<g id="node5" class="node">
<title>BrowserAnimationsModule</title>
<polygon fill="#8dd3c7" stroke="black" points="321.3,-84.8 318.3,-88.8 297.3,-88.8 294.3,-84.8 148.7,-84.8 148.7,-48.8 321.3,-48.8 321.3,-84.8"/>
<text text-anchor="middle" x="235" y="-62.6" font-family="Times,serif" font-size="14.00">BrowserAnimationsModule</text>
</g>
<!-- BrowserAnimationsModule&#45;&gt;AppModule -->
<g id="edge4" class="edge">
<title>BrowserAnimationsModule&#45;&gt;AppModule</title>
<path fill="none" stroke="black" d="M235,-84.82C235,-102.17 235,-125.8 235,-125.8 235,-125.8 352.22,-125.8 352.22,-125.8"/>
<polygon fill="black" stroke="black" points="352.22,-129.3 362.22,-125.8 352.22,-122.3 352.22,-129.3"/>
</g>
<!-- MaterialModule -->
<g id="node6" class="node">
<title>MaterialModule</title>
<polygon fill="#8dd3c7" stroke="black" points="130.47,-84.8 127.47,-88.8 106.47,-88.8 103.47,-84.8 23.53,-84.8 23.53,-48.8 130.47,-48.8 130.47,-84.8"/>
<text text-anchor="middle" x="77" y="-62.6" font-family="Times,serif" font-size="14.00">MaterialModule</text>
</g>
<!-- MaterialModule&#45;&gt;AppModule -->
<g id="edge5" class="edge">
<title>MaterialModule&#45;&gt;AppModule</title>
<path fill="none" stroke="black" d="M77,-85.08C77,-106.12 77,-137.8 77,-137.8 77,-137.8 352.25,-137.8 352.25,-137.8"/>
<polygon fill="black" stroke="black" points="352.25,-141.3 362.25,-137.8 352.25,-134.3 352.25,-141.3"/>
</g>
</g>
</svg>
