<?xml version="1.0" encoding="UTF-8" standalone="no"?>
<!DOCTYPE svg PUBLIC "-//W3C//DTD SVG 1.1//EN"
 "http://www.w3.org/Graphics/SVG/1.1/DTD/svg11.dtd">
<!-- Generated by graphviz version 2.47.3 (20210619.1520)
 -->
<!-- Title: dependencies Pages: 1 -->
<svg width="911pt" height="247pt"
 viewBox="0.00 0.00 911.00 246.80" xmlns="http://www.w3.org/2000/svg" xmlns:xlink="http://www.w3.org/1999/xlink">
<g id="graph0" class="graph" transform="scale(1 1) rotate(0) translate(4 242.8)">
<title>dependencies</title>
<polygon fill="white" stroke="transparent" points="-4,4 -4,-242.8 907,-242.8 907,4 -4,4"/>
<text text-anchor="middle" x="451.5" y="-8.2" font-family="sans-serif" font-size="14.00">dependencies</text>
<g id="clust1" class="cluster">
<title>cluster_AppModule</title>
<polygon fill="none" stroke="black" stroke-dasharray="1,5" points="8,-32.8 8,-230.8 895,-230.8 895,-32.8 8,-32.8"/>
</g>
<g id="clust7" class="cluster">
<title>cluster_AppModule_bootstrap</title>
<polygon fill="none" stroke="black" points="380,-170.8 380,-222.8 504,-222.8 504,-170.8 380,-170.8"/>
</g>
<g id="clust5" class="cluster">
<title>cluster_AppModule_imports</title>
<polygon fill="none" stroke="black" points="302,-40.8 302,-92.8 887,-92.8 887,-40.8 302,-40.8"/>
</g>
<g id="clust2" class="cluster">
<title>cluster_AppModule_declarations</title>
<polygon fill="none" stroke="black" points="16,-40.8 16,-92.8 294,-92.8 294,-40.8 16,-40.8"/>
</g>
<!-- AppComponent -->
<g id="node1" class="node">
<title>AppComponent</title>
<polygon fill="#ffffb3" stroke="black" points="285.94,-84.8 180.06,-84.8 180.06,-48.8 285.94,-48.8 285.94,-84.8"/>
<text text-anchor="middle" x="233" y="-62.6" font-family="Times,serif" font-size="14.00">AppComponent</text>
</g>
<!-- AppModule -->
<g id="node3" class="node">
<title>AppModule</title>
<polygon fill="#8dd3c7" stroke="black" points="483.66,-149.8 480.66,-153.8 459.66,-153.8 456.66,-149.8 400.34,-149.8 400.34,-113.8 483.66,-113.8 483.66,-149.8"/>
<text text-anchor="middle" x="442" y="-127.6" font-family="Times,serif" font-size="14.00">AppModule</text>
</g>
<!-- AppComponent&#45;&gt;AppModule -->
<g id="edge1" class="edge">
<title>AppComponent&#45;&gt;AppModule</title>
<path fill="none" stroke="black" d="M233,-84.82C233,-102.17 233,-125.8 233,-125.8 233,-125.8 390.21,-125.8 390.21,-125.8"/>
<polygon fill="black" stroke="black" points="390.21,-129.3 400.21,-125.8 390.21,-122.3 390.21,-129.3"/>
</g>
<!-- ErrorPageComponent -->
<g id="node2" class="node">
<title>ErrorPageComponent</title>
<polygon fill="#ffffb3" stroke="black" points="162.08,-84.8 23.92,-84.8 23.92,-48.8 162.08,-48.8 162.08,-84.8"/>
<text text-anchor="middle" x="93" y="-62.6" font-family="Times,serif" font-size="14.00">ErrorPageComponent</text>
</g>
<!-- ErrorPageComponent&#45;&gt;AppModule -->
<g id="edge2" class="edge">
<title>ErrorPageComponent&#45;&gt;AppModule</title>
<path fill="none" stroke="black" d="M93,-85.08C93,-106.12 93,-137.8 93,-137.8 93,-137.8 390.25,-137.8 390.25,-137.8"/>
<polygon fill="black" stroke="black" points="390.25,-141.3 400.25,-137.8 390.25,-134.3 390.25,-141.3"/>
</g>
<!-- AppComponent  -->
<g id="node8" class="node">
<title>AppComponent </title>
<polygon fill="#80b1d3" stroke="black" points="496.44,-214.8 387.56,-214.8 387.56,-178.8 496.44,-178.8 496.44,-214.8"/>
<text text-anchor="middle" x="442" y="-192.6" font-family="Times,serif" font-size="14.00">AppComponent </text>
</g>
<!-- AppModule&#45;&gt;AppComponent  -->
<g id="edge7" class="edge">
<title>AppModule&#45;&gt;AppComponent </title>
<path fill="none" stroke="black" stroke-dasharray="1,5" d="M442,-149.91C442,-149.91 442,-168.79 442,-168.79"/>
<polygon fill="black" stroke="black" points="438.5,-168.79 442,-178.79 445.5,-168.79 438.5,-168.79"/>
</g>
<!-- BrowserModule -->
<g id="node4" class="node">
<title>BrowserModule</title>
<polygon fill="#8dd3c7" stroke="black" points="879.47,-84.8 876.47,-88.8 855.47,-88.8 852.47,-84.8 772.53,-84.8 772.53,-48.8 879.47,-48.8 879.47,-84.8"/>
<text text-anchor="middle" x="826" y="-62.6" font-family="Times,serif" font-size="14.00">BrowserModule</text>
</g>
<!-- BrowserModule&#45;&gt;AppModule -->
<g id="edge3" class="edge">
<title>BrowserModule&#45;&gt;AppModule</title>
<path fill="none" stroke="black" d="M826,-85.08C826,-106.12 826,-137.8 826,-137.8 826,-137.8 493.83,-137.8 493.83,-137.8"/>
<polygon fill="black" stroke="black" points="493.83,-134.3 483.83,-137.8 493.83,-141.3 493.83,-134.3"/>
</g>
<!-- AppRoutingModule -->
<g id="node5" class="node">
<title>AppRoutingModule</title>
<polygon fill="#8dd3c7" stroke="black" points="754.27,-84.8 751.27,-88.8 730.27,-88.8 727.27,-84.8 625.73,-84.8 625.73,-48.8 754.27,-48.8 754.27,-84.8"/>
<text text-anchor="middle" x="690" y="-62.6" font-family="Times,serif" font-size="14.00">AppRoutingModule</text>
</g>
<!-- AppRoutingModule&#45;&gt;AppModule -->
<g id="edge4" class="edge">
<title>AppRoutingModule&#45;&gt;AppModule</title>
<path fill="none" stroke="black" d="M690,-84.82C690,-102.17 690,-125.8 690,-125.8 690,-125.8 493.79,-125.8 493.79,-125.8"/>
<polygon fill="black" stroke="black" points="493.79,-122.3 483.79,-125.8 493.79,-129.3 493.79,-122.3"/>
</g>
<!-- BrowserAnimationsModule -->
<g id="node6" class="node">
<title>BrowserAnimationsModule</title>
<polygon fill="#8dd3c7" stroke="black" points="607.3,-84.8 604.3,-88.8 583.3,-88.8 580.3,-84.8 434.7,-84.8 434.7,-48.8 607.3,-48.8 607.3,-84.8"/>
<text text-anchor="middle" x="521" y="-62.6" font-family="Times,serif" font-size="14.00">BrowserAnimationsModule</text>
</g>
<!-- BrowserAnimationsModule&#45;&gt;AppModule -->
<g id="edge5" class="edge">
<title>BrowserAnimationsModule&#45;&gt;AppModule</title>
<path fill="none" stroke="black" d="M459.34,-84.91C459.34,-84.91 459.34,-103.79 459.34,-103.79"/>
<polygon fill="black" stroke="black" points="455.84,-103.79 459.34,-113.79 462.84,-103.79 455.84,-103.79"/>
</g>
<!-- MaterialModule -->
<g id="node7" class="node">
<title>MaterialModule</title>
<polygon fill="#8dd3c7" stroke="black" points="416.47,-84.8 413.47,-88.8 392.47,-88.8 389.47,-84.8 309.53,-84.8 309.53,-48.8 416.47,-48.8 416.47,-84.8"/>
<text text-anchor="middle" x="363" y="-62.6" font-family="Times,serif" font-size="14.00">MaterialModule</text>
</g>
<!-- MaterialModule&#45;&gt;AppModule -->
<g id="edge6" class="edge">
<title>MaterialModule&#45;&gt;AppModule</title>
<path fill="none" stroke="black" d="M408.33,-84.91C408.33,-84.91 408.33,-103.79 408.33,-103.79"/>
<polygon fill="black" stroke="black" points="404.83,-103.79 408.33,-113.79 411.83,-103.79 404.83,-103.79"/>
</g>
</g>
</svg>
