<?xml version="1.0" encoding="UTF-8" standalone="no"?>
<!DOCTYPE svg PUBLIC "-//W3C//DTD SVG 1.1//EN"
 "http://www.w3.org/Graphics/SVG/1.1/DTD/svg11.dtd">
<!-- Generated by graphviz version 2.47.3 (20210619.1520)
 -->
<!-- Title: dependencies Pages: 1 -->
<svg width="5806pt" height="253pt"
 viewBox="0.00 0.00 5806.00 252.80" xmlns="http://www.w3.org/2000/svg" xmlns:xlink="http://www.w3.org/1999/xlink">
<g id="graph0" class="graph" transform="scale(1 1) rotate(0) translate(4 248.8)">
<title>dependencies</title>
<polygon fill="white" stroke="transparent" points="-4,4 -4,-248.8 5802,-248.8 5802,4 -4,4"/>
<text text-anchor="middle" x="2899" y="-8.2" font-family="sans-serif" font-size="14.00">dependencies</text>
<g id="clust1" class="cluster">
<title>cluster_AppModule</title>
<polygon fill="none" stroke="black" stroke-dasharray="1,5" points="2324,-32.8 2324,-236.8 3055,-236.8 3055,-32.8 2324,-32.8"/>
</g>
<g id="clust2" class="cluster">
<title>cluster_AppModule_declarations</title>
<polygon fill="none" stroke="black" points="2925,-40.8 2925,-92.8 3047,-92.8 3047,-40.8 2925,-40.8"/>
</g>
<g id="clust4" class="cluster">
<title>cluster_AppModule_imports</title>
<polygon fill="none" stroke="black" points="2332,-40.8 2332,-92.8 2917,-92.8 2917,-40.8 2332,-40.8"/>
</g>
<g id="clust6" class="cluster">
<title>cluster_AppModule_bootstrap</title>
<polygon fill="none" stroke="black" points="2603,-176.8 2603,-228.8 2727,-228.8 2727,-176.8 2603,-176.8"/>
</g>
<g id="clust8" class="cluster">
<title>cluster_AuthenticationModule</title>
<polygon fill="none" stroke="black" stroke-dasharray="1,5" points="3063,-32.8 3063,-160.8 3713,-160.8 3713,-32.8 3063,-32.8"/>
</g>
<g id="clust9" class="cluster">
<title>cluster_AuthenticationModule_declarations</title>
<polygon fill="none" stroke="black" points="3071,-40.8 3071,-92.8 3201,-92.8 3201,-40.8 3071,-40.8"/>
</g>
<g id="clust11" class="cluster">
<title>cluster_AuthenticationModule_imports</title>
<polygon fill="none" stroke="black" points="3209,-40.8 3209,-92.8 3705,-92.8 3705,-40.8 3209,-40.8"/>
</g>
<g id="clust15" class="cluster">
<title>cluster_AuthenticationRoutingModule</title>
<polygon fill="none" stroke="black" stroke-dasharray="1,5" points="3721,-100.8 3721,-168.8 4061,-168.8 4061,-100.8 3721,-100.8"/>
</g>
<g id="clust17" class="cluster">
<title>cluster_AuthenticationRoutingModule_imports</title>
<polygon fill="none" stroke="black" points="3855,-108.8 3855,-160.8 4053,-160.8 4053,-108.8 3855,-108.8"/>
</g>
<g id="clust18" class="cluster">
<title>cluster_AuthenticationRoutingModule_exports</title>
<polygon fill="none" stroke="black" points="3729,-108.8 3729,-160.8 3847,-160.8 3847,-108.8 3729,-108.8"/>
</g>
<g id="clust21" class="cluster">
<title>cluster_ChatModule</title>
<polygon fill="none" stroke="black" stroke-dasharray="1,5" points="4069,-32.8 4069,-160.8 5790,-160.8 5790,-32.8 4069,-32.8"/>
</g>
<g id="clust22" class="cluster">
<title>cluster_ChatModule_declarations</title>
<polygon fill="none" stroke="black" points="4233,-40.8 4233,-92.8 5782,-92.8 5782,-40.8 4233,-40.8"/>
</g>
<g id="clust33" class="cluster">
<title>cluster_ChatModule_imports</title>
<polygon fill="none" stroke="black" points="4077,-40.8 4077,-92.8 4225,-92.8 4225,-40.8 4077,-40.8"/>
</g>
<g id="clust43" class="cluster">
<title>cluster_MaterialModule</title>
<polygon fill="none" stroke="black" stroke-dasharray="1,5" points="8,-100.8 8,-168.8 2316,-168.8 2316,-100.8 8,-100.8"/>
</g>
<g id="clust45" class="cluster">
<title>cluster_MaterialModule_imports</title>
<polygon fill="none" stroke="black" points="1179,-108.8 1179,-160.8 2308,-160.8 2308,-108.8 1179,-108.8"/>
</g>
<g id="clust46" class="cluster">
<title>cluster_MaterialModule_exports</title>
<polygon fill="none" stroke="black" points="16,-108.8 16,-160.8 1171,-160.8 1171,-108.8 16,-108.8"/>
</g>
<!-- AppComponent -->
<g id="node1" class="node">
<title>AppComponent</title>
<polygon fill="#ffffb3" stroke="black" points="3038.94,-84.8 2933.06,-84.8 2933.06,-48.8 3038.94,-48.8 3038.94,-84.8"/>
<text text-anchor="middle" x="2986" y="-62.6" font-family="Times,serif" font-size="14.00">AppComponent</text>
</g>
<!-- AppModule -->
<g id="node2" class="node">
<title>AppModule</title>
<polygon fill="#8dd3c7" stroke="black" points="2706.66,-152.8 2703.66,-156.8 2682.66,-156.8 2679.66,-152.8 2623.34,-152.8 2623.34,-116.8 2706.66,-116.8 2706.66,-152.8"/>
<text text-anchor="middle" x="2665" y="-130.6" font-family="Times,serif" font-size="14.00">AppModule</text>
</g>
<!-- AppComponent&#45;&gt;AppModule -->
<g id="edge1" class="edge">
<title>AppComponent&#45;&gt;AppModule</title>
<path fill="none" stroke="black" d="M2986,-85.05C2986,-107.82 2986,-143.8 2986,-143.8 2986,-143.8 2716.97,-143.8 2716.97,-143.8"/>
<polygon fill="black" stroke="black" points="2716.97,-140.3 2706.97,-143.8 2716.97,-147.3 2716.97,-140.3"/>
</g>
<!-- AppComponent  -->
<g id="node7" class="node">
<title>AppComponent </title>
<polygon fill="#80b1d3" stroke="black" points="2719.44,-220.8 2610.56,-220.8 2610.56,-184.8 2719.44,-184.8 2719.44,-220.8"/>
<text text-anchor="middle" x="2665" y="-198.6" font-family="Times,serif" font-size="14.00">AppComponent </text>
</g>
<!-- AppModule&#45;&gt;AppComponent  -->
<g id="edge6" class="edge">
<title>AppModule&#45;&gt;AppComponent </title>
<path fill="none" stroke="black" stroke-dasharray="1,5" d="M2665,-153.02C2665,-153.02 2665,-174.53 2665,-174.53"/>
<polygon fill="black" stroke="black" points="2661.5,-174.53 2665,-184.53 2668.5,-174.53 2661.5,-174.53"/>
</g>
<!-- BrowserModule -->
<g id="node3" class="node">
<title>BrowserModule</title>
<polygon fill="#8dd3c7" stroke="black" points="2718.47,-84.8 2715.47,-88.8 2694.47,-88.8 2691.47,-84.8 2611.53,-84.8 2611.53,-48.8 2718.47,-48.8 2718.47,-84.8"/>
<text text-anchor="middle" x="2665" y="-62.6" font-family="Times,serif" font-size="14.00">BrowserModule</text>
</g>
<!-- BrowserModule&#45;&gt;AppModule -->
<g id="edge2" class="edge">
<title>BrowserModule&#45;&gt;AppModule</title>
<path fill="none" stroke="black" d="M2665,-85.02C2665,-85.02 2665,-106.53 2665,-106.53"/>
<polygon fill="black" stroke="black" points="2661.5,-106.53 2665,-116.53 2668.5,-106.53 2661.5,-106.53"/>
</g>
<!-- AppRoutingModule -->
<g id="node4" class="node">
<title>AppRoutingModule</title>
<polygon fill="#8dd3c7" stroke="black" points="2593.27,-84.8 2590.27,-88.8 2569.27,-88.8 2566.27,-84.8 2464.73,-84.8 2464.73,-48.8 2593.27,-48.8 2593.27,-84.8"/>
<text text-anchor="middle" x="2529" y="-62.6" font-family="Times,serif" font-size="14.00">AppRoutingModule</text>
</g>
<!-- AppRoutingModule&#45;&gt;AppModule -->
<g id="edge3" class="edge">
<title>AppRoutingModule&#45;&gt;AppModule</title>
<path fill="none" stroke="black" d="M2529,-85.02C2529,-105.17 2529,-134.8 2529,-134.8 2529,-134.8 2613.09,-134.8 2613.09,-134.8"/>
<polygon fill="black" stroke="black" points="2613.09,-138.3 2623.09,-134.8 2613.09,-131.3 2613.09,-138.3"/>
</g>
<!-- BrowserAnimationsModule -->
<g id="node5" class="node">
<title>BrowserAnimationsModule</title>
<polygon fill="#8dd3c7" stroke="black" points="2909.3,-84.8 2906.3,-88.8 2885.3,-88.8 2882.3,-84.8 2736.7,-84.8 2736.7,-48.8 2909.3,-48.8 2909.3,-84.8"/>
<text text-anchor="middle" x="2823" y="-62.6" font-family="Times,serif" font-size="14.00">BrowserAnimationsModule</text>
</g>
<!-- BrowserAnimationsModule&#45;&gt;AppModule -->
<g id="edge4" class="edge">
<title>BrowserAnimationsModule&#45;&gt;AppModule</title>
<path fill="none" stroke="black" d="M2823,-85.02C2823,-105.17 2823,-134.8 2823,-134.8 2823,-134.8 2716.93,-134.8 2716.93,-134.8"/>
<polygon fill="black" stroke="black" points="2716.93,-131.3 2706.93,-134.8 2716.93,-138.3 2716.93,-131.3"/>
</g>
<!-- MaterialModule -->
<g id="node6" class="node">
<title>MaterialModule</title>
<polygon fill="#8dd3c7" stroke="black" points="2446.47,-84.8 2443.47,-88.8 2422.47,-88.8 2419.47,-84.8 2339.53,-84.8 2339.53,-48.8 2446.47,-48.8 2446.47,-84.8"/>
<text text-anchor="middle" x="2393" y="-62.6" font-family="Times,serif" font-size="14.00">MaterialModule</text>
</g>
<!-- MaterialModule&#45;&gt;AppModule -->
<g id="edge5" class="edge">
<title>MaterialModule&#45;&gt;AppModule</title>
<path fill="none" stroke="black" d="M2425.09,-85.05C2425.09,-107.82 2425.09,-143.8 2425.09,-143.8 2425.09,-143.8 2613.21,-143.8 2613.21,-143.8"/>
<polygon fill="black" stroke="black" points="2613.21,-147.3 2623.21,-143.8 2613.21,-140.3 2613.21,-147.3"/>
</g>
<!-- AuthenticationModule -->
<g id="node9" class="node">
<title>AuthenticationModule</title>
<polygon fill="#8dd3c7" stroke="black" points="3382.25,-152.8 3379.25,-156.8 3358.25,-156.8 3355.25,-152.8 3239.75,-152.8 3239.75,-116.8 3382.25,-116.8 3382.25,-152.8"/>
<text text-anchor="middle" x="3311" y="-130.6" font-family="Times,serif" font-size="14.00">AuthenticationModule</text>
</g>
<!-- MaterialModule&#45;&gt;AuthenticationModule -->
<g id="edge11" class="edge">
<title>MaterialModule&#45;&gt;AuthenticationModule</title>
<path fill="none" stroke="black" d="M2360.91,-84.91C2360.91,-94.7 2360.91,-104.8 2360.91,-104.8 2360.91,-104.8 3287.21,-104.8 3287.21,-104.8 3287.21,-104.8 3287.21,-106.66 3287.21,-106.66"/>
<polygon fill="black" stroke="black" points="3283.71,-106.66 3287.21,-116.66 3290.71,-106.66 3283.71,-106.66"/>
</g>
<!-- ChatModule -->
<g id="node25" class="node">
<title>ChatModule</title>
<polygon fill="#8dd3c7" stroke="black" points="4726.99,-152.8 4723.99,-156.8 4702.99,-156.8 4699.99,-152.8 4641.01,-152.8 4641.01,-116.8 4726.99,-116.8 4726.99,-152.8"/>
<text text-anchor="middle" x="4684" y="-130.6" font-family="Times,serif" font-size="14.00">ChatModule</text>
</g>
<!-- MaterialModule&#45;&gt;ChatModule -->
<g id="edge26" class="edge">
<title>MaterialModule&#45;&gt;ChatModule</title>
<path fill="none" stroke="black" d="M2382.3,-84.83C2382.3,-91.65 2382.3,-97.8 2382.3,-97.8 2382.3,-97.8 4649.63,-97.8 4649.63,-97.8 4649.63,-97.8 4649.63,-106.73 4649.63,-106.73"/>
<polygon fill="black" stroke="black" points="4646.13,-106.73 4649.63,-116.73 4653.13,-106.73 4646.13,-106.73"/>
</g>
<!-- MatInputModule  -->
<g id="node35" class="node">
<title>MatInputModule </title>
<polygon fill="#fb8072" stroke="black" points="830.65,-152.8 715.35,-152.8 715.35,-116.8 830.65,-116.8 830.65,-152.8"/>
<text text-anchor="middle" x="773" y="-130.6" font-family="Times,serif" font-size="14.00">MatInputModule </text>
</g>
<!-- MaterialModule&#45;&gt;MatInputModule  -->
<g id="edge38" class="edge">
<title>MaterialModule&#45;&gt;MatInputModule </title>
<path fill="none" stroke="black" stroke-dasharray="5,2" d="M2339.1,-62.8C2058,-62.8 773,-62.8 773,-62.8 773,-62.8 773,-106.63 773,-106.63"/>
<polygon fill="black" stroke="black" points="769.5,-106.63 773,-116.63 776.5,-106.63 769.5,-106.63"/>
</g>
<!-- MatCardModule  -->
<g id="node36" class="node">
<title>MatCardModule </title>
<polygon fill="#fb8072" stroke="black" points="697.31,-152.8 584.69,-152.8 584.69,-116.8 697.31,-116.8 697.31,-152.8"/>
<text text-anchor="middle" x="641" y="-130.6" font-family="Times,serif" font-size="14.00">MatCardModule </text>
</g>
<!-- MaterialModule&#45;&gt;MatCardModule  -->
<g id="edge39" class="edge">
<title>MaterialModule&#45;&gt;MatCardModule </title>
<path fill="none" stroke="black" stroke-dasharray="5,2" d="M2339.13,-60.8C2044.46,-60.8 641,-60.8 641,-60.8 641,-60.8 641,-106.51 641,-106.51"/>
<polygon fill="black" stroke="black" points="637.5,-106.51 641,-116.51 644.5,-106.51 637.5,-106.51"/>
</g>
<!-- MatButtonModule  -->
<g id="node37" class="node">
<title>MatButtonModule </title>
<polygon fill="#fb8072" stroke="black" points="566.72,-152.8 443.28,-152.8 443.28,-116.8 566.72,-116.8 566.72,-152.8"/>
<text text-anchor="middle" x="505" y="-130.6" font-family="Times,serif" font-size="14.00">MatButtonModule </text>
</g>
<!-- MaterialModule&#45;&gt;MatButtonModule  -->
<g id="edge40" class="edge">
<title>MaterialModule&#45;&gt;MatButtonModule </title>
<path fill="none" stroke="black" stroke-dasharray="5,2" d="M2339.29,-57.8C2031.46,-57.8 505,-57.8 505,-57.8 505,-57.8 505,-106.55 505,-106.55"/>
<polygon fill="black" stroke="black" points="501.5,-106.55 505,-116.55 508.5,-106.55 501.5,-106.55"/>
</g>
<!-- MatDividerModule  -->
<g id="node38" class="node">
<title>MatDividerModule </title>
<polygon fill="#fb8072" stroke="black" points="425.36,-152.8 296.64,-152.8 296.64,-116.8 425.36,-116.8 425.36,-152.8"/>
<text text-anchor="middle" x="361" y="-130.6" font-family="Times,serif" font-size="14.00">MatDividerModule </text>
</g>
<!-- MaterialModule&#45;&gt;MatDividerModule  -->
<g id="edge41" class="edge">
<title>MaterialModule&#45;&gt;MatDividerModule </title>
<path fill="none" stroke="black" stroke-dasharray="5,2" d="M2339.43,-55.8C2018.19,-55.8 361,-55.8 361,-55.8 361,-55.8 361,-106.48 361,-106.48"/>
<polygon fill="black" stroke="black" points="357.5,-106.48 361,-116.48 364.5,-106.48 357.5,-106.48"/>
</g>
<!-- MatIconModule  -->
<g id="node39" class="node">
<title>MatIconModule </title>
<polygon fill="#fb8072" stroke="black" points="279.48,-152.8 168.52,-152.8 168.52,-116.8 279.48,-116.8 279.48,-152.8"/>
<text text-anchor="middle" x="224" y="-130.6" font-family="Times,serif" font-size="14.00">MatIconModule </text>
</g>
<!-- MaterialModule&#45;&gt;MatIconModule  -->
<g id="edge42" class="edge">
<title>MaterialModule&#45;&gt;MatIconModule </title>
<path fill="none" stroke="black" stroke-dasharray="5,2" d="M2339.38,-53.8C2005.38,-53.8 224,-53.8 224,-53.8 224,-53.8 224,-106.42 224,-106.42"/>
<polygon fill="black" stroke="black" points="220.5,-106.42 224,-116.42 227.5,-106.42 220.5,-106.42"/>
</g>
<!-- MatTooltipModule  -->
<g id="node40" class="node">
<title>MatTooltipModule </title>
<polygon fill="#fb8072" stroke="black" points="150.32,-152.8 23.68,-152.8 23.68,-116.8 150.32,-116.8 150.32,-152.8"/>
<text text-anchor="middle" x="87" y="-130.6" font-family="Times,serif" font-size="14.00">MatTooltipModule </text>
</g>
<!-- MaterialModule&#45;&gt;MatTooltipModule  -->
<g id="edge43" class="edge">
<title>MaterialModule&#45;&gt;MatTooltipModule </title>
<path fill="none" stroke="black" stroke-dasharray="5,2" d="M2339.39,-51.8C1993.16,-51.8 87,-51.8 87,-51.8 87,-51.8 87,-106.79 87,-106.79"/>
<polygon fill="black" stroke="black" points="83.5,-106.79 87,-116.79 90.5,-106.79 83.5,-106.79"/>
</g>
<!-- MatDatepickerModule  -->
<g id="node41" class="node">
<title>MatDatepickerModule </title>
<polygon fill="#fb8072" stroke="black" points="1162.51,-152.8 1015.49,-152.8 1015.49,-116.8 1162.51,-116.8 1162.51,-152.8"/>
<text text-anchor="middle" x="1089" y="-130.6" font-family="Times,serif" font-size="14.00">MatDatepickerModule </text>
</g>
<!-- MaterialModule&#45;&gt;MatDatepickerModule  -->
<g id="edge44" class="edge">
<title>MaterialModule&#45;&gt;MatDatepickerModule </title>
<path fill="none" stroke="black" stroke-dasharray="5,2" d="M2339.45,-66.8C2094.07,-66.8 1089,-66.8 1089,-66.8 1089,-66.8 1089,-106.58 1089,-106.58"/>
<polygon fill="black" stroke="black" points="1085.5,-106.58 1089,-116.58 1092.5,-106.58 1085.5,-106.58"/>
</g>
<!-- MatNativeDateModule  -->
<g id="node42" class="node">
<title>MatNativeDateModule </title>
<polygon fill="#fb8072" stroke="black" points="997.84,-152.8 848.16,-152.8 848.16,-116.8 997.84,-116.8 997.84,-152.8"/>
<text text-anchor="middle" x="923" y="-130.6" font-family="Times,serif" font-size="14.00">MatNativeDateModule </text>
</g>
<!-- MaterialModule&#45;&gt;MatNativeDateModule  -->
<g id="edge45" class="edge">
<title>MaterialModule&#45;&gt;MatNativeDateModule </title>
<path fill="none" stroke="black" stroke-dasharray="5,2" d="M2339.38,-64.8C2075,-64.8 923,-64.8 923,-64.8 923,-64.8 923,-106.77 923,-106.77"/>
<polygon fill="black" stroke="black" points="919.5,-106.77 923,-116.77 926.5,-106.77 919.5,-106.77"/>
</g>
<!-- LoginComponent -->
<g id="node8" class="node">
<title>LoginComponent</title>
<polygon fill="#ffffb3" stroke="black" points="3193.28,-84.8 3078.72,-84.8 3078.72,-48.8 3193.28,-48.8 3193.28,-84.8"/>
<text text-anchor="middle" x="3136" y="-62.6" font-family="Times,serif" font-size="14.00">LoginComponent</text>
</g>
<!-- LoginComponent&#45;&gt;AuthenticationModule -->
<g id="edge7" class="edge">
<title>LoginComponent&#45;&gt;AuthenticationModule</title>
<path fill="none" stroke="black" d="M3136,-84.82C3136,-102.17 3136,-125.8 3136,-125.8 3136,-125.8 3229.57,-125.8 3229.57,-125.8"/>
<polygon fill="black" stroke="black" points="3229.57,-129.3 3239.57,-125.8 3229.57,-122.3 3229.57,-129.3"/>
</g>
<!-- CommonModule -->
<g id="node10" class="node">
<title>CommonModule</title>
<polygon fill="#8dd3c7" stroke="black" points="3534.67,-84.8 3531.67,-88.8 3510.67,-88.8 3507.67,-84.8 3423.33,-84.8 3423.33,-48.8 3534.67,-48.8 3534.67,-84.8"/>
<text text-anchor="middle" x="3479" y="-62.6" font-family="Times,serif" font-size="14.00">CommonModule</text>
</g>
<!-- CommonModule&#45;&gt;AuthenticationModule -->
<g id="edge8" class="edge">
<title>CommonModule&#45;&gt;AuthenticationModule</title>
<path fill="none" stroke="black" d="M3497.61,-84.82C3497.61,-102.17 3497.61,-125.8 3497.61,-125.8 3497.61,-125.8 3392.35,-125.8 3392.35,-125.8"/>
<polygon fill="black" stroke="black" points="3392.35,-122.3 3382.35,-125.8 3392.35,-129.3 3392.35,-122.3"/>
</g>
<!-- CommonModule&#45;&gt;ChatModule -->
<g id="edge24" class="edge">
<title>CommonModule&#45;&gt;ChatModule</title>
<path fill="none" stroke="black" d="M3460.39,-84.97C3460.39,-88.85 3460.39,-91.8 3460.39,-91.8 3460.39,-91.8 4658.25,-91.8 4658.25,-91.8 4658.25,-91.8 4658.25,-106.31 4658.25,-106.31"/>
<polygon fill="black" stroke="black" points="4654.75,-106.31 4658.25,-116.31 4661.75,-106.31 4654.75,-106.31"/>
</g>
<!-- AuthenticationRoutingModule -->
<g id="node11" class="node">
<title>AuthenticationRoutingModule</title>
<polygon fill="#8dd3c7" stroke="black" points="3404.87,-84.8 3401.87,-88.8 3380.87,-88.8 3377.87,-84.8 3217.13,-84.8 3217.13,-48.8 3404.87,-48.8 3404.87,-84.8"/>
<text text-anchor="middle" x="3311" y="-62.6" font-family="Times,serif" font-size="14.00">AuthenticationRoutingModule</text>
</g>
<!-- AuthenticationRoutingModule&#45;&gt;AuthenticationModule -->
<g id="edge9" class="edge">
<title>AuthenticationRoutingModule&#45;&gt;AuthenticationModule</title>
<path fill="none" stroke="black" d="M3334.79,-85.02C3334.79,-85.02 3334.79,-106.53 3334.79,-106.53"/>
<polygon fill="black" stroke="black" points="3331.29,-106.53 3334.79,-116.53 3338.29,-106.53 3331.29,-106.53"/>
</g>
<!-- RouterModule  -->
<g id="node14" class="node">
<title>RouterModule </title>
<polygon fill="#fb8072" stroke="black" points="3838.65,-152.8 3737.35,-152.8 3737.35,-116.8 3838.65,-116.8 3838.65,-152.8"/>
<text text-anchor="middle" x="3788" y="-130.6" font-family="Times,serif" font-size="14.00">RouterModule </text>
</g>
<!-- AuthenticationRoutingModule&#45;&gt;RouterModule  -->
<g id="edge13" class="edge">
<title>AuthenticationRoutingModule&#45;&gt;RouterModule </title>
<path fill="none" stroke="black" stroke-dasharray="5,2" d="M3397.42,-85.05C3397.42,-107.82 3397.42,-143.8 3397.42,-143.8 3397.42,-143.8 3727.34,-143.8 3727.34,-143.8"/>
<polygon fill="black" stroke="black" points="3727.34,-147.3 3737.34,-143.8 3727.34,-140.3 3727.34,-147.3"/>
</g>
<!-- ReactiveFormsModule -->
<g id="node12" class="node">
<title>ReactiveFormsModule</title>
<polygon fill="#8dd3c7" stroke="black" points="3697.3,-84.8 3694.3,-88.8 3673.3,-88.8 3670.3,-84.8 3552.7,-84.8 3552.7,-48.8 3697.3,-48.8 3697.3,-84.8"/>
<text text-anchor="middle" x="3625" y="-62.6" font-family="Times,serif" font-size="14.00">ReactiveFormsModule</text>
</g>
<!-- ReactiveFormsModule&#45;&gt;AuthenticationModule -->
<g id="edge10" class="edge">
<title>ReactiveFormsModule&#45;&gt;AuthenticationModule</title>
<path fill="none" stroke="black" d="M3625,-85.02C3625,-105.17 3625,-134.8 3625,-134.8 3625,-134.8 3392.64,-134.8 3392.64,-134.8"/>
<polygon fill="black" stroke="black" points="3392.64,-131.3 3382.64,-134.8 3392.64,-138.3 3392.64,-131.3"/>
</g>
<!-- ReactiveFormsModule&#45;&gt;ChatModule -->
<g id="edge27" class="edge">
<title>ReactiveFormsModule&#45;&gt;ChatModule</title>
<path fill="none" stroke="black" d="M3697.17,-60.8C3822,-60.8 4065.03,-60.8 4065.03,-60.8 4065.03,-60.8 4065.03,-146.8 4065.03,-146.8 4065.03,-146.8 4630.97,-146.8 4630.97,-146.8"/>
<polygon fill="black" stroke="black" points="4630.97,-150.3 4640.97,-146.8 4630.97,-143.3 4630.97,-150.3"/>
</g>
<!-- RouterModule.forChild(args) -->
<g id="node13" class="node">
<title>RouterModule.forChild(args)</title>
<polygon fill="#8dd3c7" stroke="black" points="4044.73,-152.8 4041.73,-156.8 4020.73,-156.8 4017.73,-152.8 3863.27,-152.8 3863.27,-116.8 4044.73,-116.8 4044.73,-152.8"/>
<text text-anchor="middle" x="3954" y="-130.6" font-family="Times,serif" font-size="14.00">RouterModule.forChild(args)</text>
</g>
<!-- RouterModule.forChild(args)&#45;&gt;AuthenticationRoutingModule -->
<g id="edge12" class="edge">
<title>RouterModule.forChild(args)&#45;&gt;AuthenticationRoutingModule</title>
<path fill="none" stroke="black" d="M3954,-116.61C3954,-113.26 3954,-110.8 3954,-110.8 3954,-110.8 3389.9,-110.8 3389.9,-110.8 3389.9,-110.8 3389.9,-94.95 3389.9,-94.95"/>
<polygon fill="black" stroke="black" points="3393.4,-94.95 3389.9,-84.95 3386.4,-94.95 3393.4,-94.95"/>
</g>
<!-- ChatRoutingModule -->
<g id="node26" class="node">
<title>ChatRoutingModule</title>
<polygon fill="#8dd3c7" stroke="black" points="4216.61,-84.8 4213.61,-88.8 4192.61,-88.8 4189.61,-84.8 4085.39,-84.8 4085.39,-48.8 4216.61,-48.8 4216.61,-84.8"/>
<text text-anchor="middle" x="4151" y="-62.6" font-family="Times,serif" font-size="14.00">ChatRoutingModule</text>
</g>
<!-- RouterModule.forChild(args)&#45;&gt;ChatRoutingModule -->
<g id="edge28" class="edge">
<title>RouterModule.forChild(args)&#45;&gt;ChatRoutingModule</title>
<path fill="none" stroke="black" d="M4044.65,-140.8C4087.39,-140.8 4129.15,-140.8 4129.15,-140.8 4129.15,-140.8 4129.15,-95.09 4129.15,-95.09"/>
<polygon fill="black" stroke="black" points="4132.65,-95.09 4129.15,-85.09 4125.65,-95.09 4132.65,-95.09"/>
</g>
<!-- ChatContainerComponent -->
<g id="node15" class="node">
<title>ChatContainerComponent</title>
<polygon fill="#ffffb3" stroke="black" points="5774.48,-84.8 5611.52,-84.8 5611.52,-48.8 5774.48,-48.8 5774.48,-84.8"/>
<text text-anchor="middle" x="5693" y="-62.6" font-family="Times,serif" font-size="14.00">ChatContainerComponent</text>
</g>
<!-- ChatContainerComponent&#45;&gt;ChatModule -->
<g id="edge14" class="edge">
<title>ChatContainerComponent&#45;&gt;ChatModule</title>
<path fill="none" stroke="black" d="M5693,-85.18C5693,-109.08 5693,-147.8 5693,-147.8 5693,-147.8 4737.03,-147.8 4737.03,-147.8"/>
<polygon fill="black" stroke="black" points="4737.03,-144.3 4727.03,-147.8 4737.03,-151.3 4737.03,-144.3"/>
</g>
<!-- MessagesContainerComponent -->
<g id="node16" class="node">
<title>MessagesContainerComponent</title>
<polygon fill="#ffffb3" stroke="black" points="5593.46,-84.8 5402.54,-84.8 5402.54,-48.8 5593.46,-48.8 5593.46,-84.8"/>
<text text-anchor="middle" x="5498" y="-62.6" font-family="Times,serif" font-size="14.00">MessagesContainerComponent</text>
</g>
<!-- MessagesContainerComponent&#45;&gt;ChatModule -->
<g id="edge15" class="edge">
<title>MessagesContainerComponent&#45;&gt;ChatModule</title>
<path fill="none" stroke="black" d="M5498,-84.81C5498,-107.29 5498,-142.8 5498,-142.8 5498,-142.8 4737.19,-142.8 4737.19,-142.8"/>
<polygon fill="black" stroke="black" points="4737.19,-139.3 4727.19,-142.8 4737.19,-146.3 4737.19,-139.3"/>
</g>
<!-- ChatPanelComponent -->
<g id="node17" class="node">
<title>ChatPanelComponent</title>
<polygon fill="#ffffb3" stroke="black" points="5384.38,-84.8 5245.62,-84.8 5245.62,-48.8 5384.38,-48.8 5384.38,-84.8"/>
<text text-anchor="middle" x="5315" y="-62.6" font-family="Times,serif" font-size="14.00">ChatPanelComponent</text>
</g>
<!-- ChatPanelComponent&#45;&gt;ChatModule -->
<g id="edge16" class="edge">
<title>ChatPanelComponent&#45;&gt;ChatModule</title>
<path fill="none" stroke="black" d="M5315,-85.08C5315,-106.12 5315,-137.8 5315,-137.8 5315,-137.8 4737.37,-137.8 4737.37,-137.8"/>
<polygon fill="black" stroke="black" points="4737.37,-134.3 4727.37,-137.8 4737.37,-141.3 4737.37,-134.3"/>
</g>
<!-- MessageComponent -->
<g id="node18" class="node">
<title>MessageComponent</title>
<polygon fill="#ffffb3" stroke="black" points="5227.31,-84.8 5096.69,-84.8 5096.69,-48.8 5227.31,-48.8 5227.31,-84.8"/>
<text text-anchor="middle" x="5162" y="-62.6" font-family="Times,serif" font-size="14.00">MessageComponent</text>
</g>
<!-- MessageComponent&#45;&gt;ChatModule -->
<g id="edge17" class="edge">
<title>MessageComponent&#45;&gt;ChatModule</title>
<path fill="none" stroke="black" d="M5162,-84.83C5162,-104.38 5162,-132.8 5162,-132.8 5162,-132.8 4737.26,-132.8 4737.26,-132.8"/>
<polygon fill="black" stroke="black" points="4737.26,-129.3 4727.26,-132.8 4737.26,-136.3 4737.26,-129.3"/>
</g>
<!-- CompleteComponent -->
<g id="node19" class="node">
<title>CompleteComponent</title>
<polygon fill="#ffffb3" stroke="black" points="5078.77,-84.8 4943.23,-84.8 4943.23,-48.8 5078.77,-48.8 5078.77,-84.8"/>
<text text-anchor="middle" x="5011" y="-62.6" font-family="Times,serif" font-size="14.00">CompleteComponent</text>
</g>
<!-- CompleteComponent&#45;&gt;ChatModule -->
<g id="edge18" class="edge">
<title>CompleteComponent&#45;&gt;ChatModule</title>
<path fill="none" stroke="black" d="M5011,-85.1C5011,-103.07 5011,-127.8 5011,-127.8 5011,-127.8 4737.09,-127.8 4737.09,-127.8"/>
<polygon fill="black" stroke="black" points="4737.09,-124.3 4727.09,-127.8 4737.09,-131.3 4737.09,-124.3"/>
</g>
<!-- RateComponent -->
<g id="node20" class="node">
<title>RateComponent</title>
<polygon fill="#ffffb3" stroke="black" points="4925.49,-84.8 4818.51,-84.8 4818.51,-48.8 4925.49,-48.8 4925.49,-84.8"/>
<text text-anchor="middle" x="4872" y="-62.6" font-family="Times,serif" font-size="14.00">RateComponent</text>
</g>
<!-- RateComponent&#45;&gt;ChatModule -->
<g id="edge19" class="edge">
<title>RateComponent&#45;&gt;ChatModule</title>
<path fill="none" stroke="black" d="M4872,-84.83C4872,-101.2 4872,-122.8 4872,-122.8 4872,-122.8 4737.13,-122.8 4737.13,-122.8"/>
<polygon fill="black" stroke="black" points="4737.13,-119.3 4727.13,-122.8 4737.13,-126.3 4737.13,-119.3"/>
</g>
<!-- DateComponent -->
<g id="node21" class="node">
<title>DateComponent</title>
<polygon fill="#ffffb3" stroke="black" points="4800.76,-84.8 4693.24,-84.8 4693.24,-48.8 4800.76,-48.8 4800.76,-84.8"/>
<text text-anchor="middle" x="4747" y="-62.6" font-family="Times,serif" font-size="14.00">DateComponent</text>
</g>
<!-- DateComponent&#45;&gt;ChatModule -->
<g id="edge20" class="edge">
<title>DateComponent&#45;&gt;ChatModule</title>
<path fill="none" stroke="black" d="M4710.06,-85.02C4710.06,-85.02 4710.06,-106.53 4710.06,-106.53"/>
<polygon fill="black" stroke="black" points="4706.56,-106.53 4710.06,-116.53 4713.56,-106.53 4706.56,-106.53"/>
</g>
<!-- MapComponent -->
<g id="node22" class="node">
<title>MapComponent</title>
<polygon fill="#ffffb3" stroke="black" points="4675.49,-84.8 4568.51,-84.8 4568.51,-48.8 4675.49,-48.8 4675.49,-84.8"/>
<text text-anchor="middle" x="4622" y="-62.6" font-family="Times,serif" font-size="14.00">MapComponent</text>
</g>
<!-- MapComponent&#45;&gt;ChatModule -->
<g id="edge21" class="edge">
<title>MapComponent&#45;&gt;ChatModule</title>
<path fill="none" stroke="black" d="M4666.87,-85.02C4666.87,-85.02 4666.87,-106.53 4666.87,-106.53"/>
<polygon fill="black" stroke="black" points="4663.37,-106.53 4666.87,-116.53 4670.37,-106.53 4663.37,-106.53"/>
</g>
<!-- ScrollBottomDirective -->
<g id="node23" class="node">
<title>ScrollBottomDirective</title>
<polygon fill="#ffffb3" stroke="black" points="4550.53,-84.8 4407.47,-84.8 4407.47,-48.8 4550.53,-48.8 4550.53,-84.8"/>
<text text-anchor="middle" x="4479" y="-62.6" font-family="Times,serif" font-size="14.00">ScrollBottomDirective</text>
</g>
<!-- ScrollBottomDirective&#45;&gt;ChatModule -->
<g id="edge22" class="edge">
<title>ScrollBottomDirective&#45;&gt;ChatModule</title>
<path fill="none" stroke="black" d="M4479,-84.83C4479,-101.2 4479,-122.8 4479,-122.8 4479,-122.8 4630.52,-122.8 4630.52,-122.8"/>
<polygon fill="black" stroke="black" points="4630.52,-126.3 4640.52,-122.8 4630.52,-119.3 4630.52,-126.3"/>
</g>
<!-- ChatHeaderComponent -->
<g id="node24" class="node">
<title>ChatHeaderComponent</title>
<polygon fill="#ffffb3" stroke="black" points="4389.19,-84.8 4240.81,-84.8 4240.81,-48.8 4389.19,-48.8 4389.19,-84.8"/>
<text text-anchor="middle" x="4315" y="-62.6" font-family="Times,serif" font-size="14.00">ChatHeaderComponent</text>
</g>
<!-- ChatHeaderComponent&#45;&gt;ChatModule -->
<g id="edge23" class="edge">
<title>ChatHeaderComponent&#45;&gt;ChatModule</title>
<path fill="none" stroke="black" d="M4315,-85.07C4315,-103.36 4315,-128.8 4315,-128.8 4315,-128.8 4630.95,-128.8 4630.95,-128.8"/>
<polygon fill="black" stroke="black" points="4630.95,-132.3 4640.95,-128.8 4630.95,-125.3 4630.95,-132.3"/>
</g>
<!-- ChatRoutingModule&#45;&gt;RouterModule  -->
<g id="edge29" class="edge">
<title>ChatRoutingModule&#45;&gt;RouterModule </title>
<path fill="none" stroke="black" stroke-dasharray="5,2" d="M4085.26,-72.8C3980.66,-72.8 3788,-72.8 3788,-72.8 3788,-72.8 3788,-106.53 3788,-106.53"/>
<polygon fill="black" stroke="black" points="3784.5,-106.53 3788,-116.53 3791.5,-106.53 3784.5,-106.53"/>
</g>
<!-- ChatRoutingModule&#45;&gt;ChatModule -->
<g id="edge25" class="edge">
<title>ChatRoutingModule&#45;&gt;ChatModule</title>
<path fill="none" stroke="black" d="M4172.85,-85.02C4172.85,-105.17 4172.85,-134.8 4172.85,-134.8 4172.85,-134.8 4630.86,-134.8 4630.86,-134.8"/>
<polygon fill="black" stroke="black" points="4630.86,-138.3 4640.86,-134.8 4630.86,-131.3 4630.86,-138.3"/>
</g>
<!-- MatInputModule -->
<g id="node27" class="node">
<title>MatInputModule</title>
<polygon fill="#8dd3c7" stroke="black" points="1973.65,-152.8 1970.65,-156.8 1949.65,-156.8 1946.65,-152.8 1862.35,-152.8 1862.35,-116.8 1973.65,-116.8 1973.65,-152.8"/>
<text text-anchor="middle" x="1918" y="-130.6" font-family="Times,serif" font-size="14.00">MatInputModule</text>
</g>
<!-- MatInputModule&#45;&gt;MaterialModule -->
<g id="edge30" class="edge">
<title>MatInputModule&#45;&gt;MaterialModule</title>
<path fill="none" stroke="black" d="M1918,-116.52C1918,-100.85 1918,-80.8 1918,-80.8 1918,-80.8 2329.43,-80.8 2329.43,-80.8"/>
<polygon fill="black" stroke="black" points="2329.43,-84.3 2339.43,-80.8 2329.43,-77.3 2329.43,-84.3"/>
</g>
<!-- MatCardModule -->
<g id="node28" class="node">
<title>MatCardModule</title>
<polygon fill="#8dd3c7" stroke="black" points="1844.81,-152.8 1841.81,-156.8 1820.81,-156.8 1817.81,-152.8 1735.19,-152.8 1735.19,-116.8 1844.81,-116.8 1844.81,-152.8"/>
<text text-anchor="middle" x="1790" y="-130.6" font-family="Times,serif" font-size="14.00">MatCardModule</text>
</g>
<!-- MatCardModule&#45;&gt;MaterialModule -->
<g id="edge31" class="edge">
<title>MatCardModule&#45;&gt;MaterialModule</title>
<path fill="none" stroke="black" d="M1790,-116.77C1790,-100.4 1790,-78.8 1790,-78.8 1790,-78.8 2329.49,-78.8 2329.49,-78.8"/>
<polygon fill="black" stroke="black" points="2329.49,-82.3 2339.49,-78.8 2329.49,-75.3 2329.49,-82.3"/>
</g>
<!-- MatButtonModule -->
<g id="node29" class="node">
<title>MatButtonModule</title>
<polygon fill="#8dd3c7" stroke="black" points="1717.22,-152.8 1714.22,-156.8 1693.22,-156.8 1690.22,-152.8 1596.78,-152.8 1596.78,-116.8 1717.22,-116.8 1717.22,-152.8"/>
<text text-anchor="middle" x="1657" y="-130.6" font-family="Times,serif" font-size="14.00">MatButtonModule</text>
</g>
<!-- MatButtonModule&#45;&gt;MaterialModule -->
<g id="edge32" class="edge">
<title>MatButtonModule&#45;&gt;MaterialModule</title>
<path fill="none" stroke="black" d="M1657,-116.78C1657,-99.43 1657,-75.8 1657,-75.8 1657,-75.8 2329.48,-75.8 2329.48,-75.8"/>
<polygon fill="black" stroke="black" points="2329.48,-79.3 2339.48,-75.8 2329.48,-72.3 2329.48,-79.3"/>
</g>
<!-- MatDividerModule -->
<g id="node30" class="node">
<title>MatDividerModule</title>
<polygon fill="#8dd3c7" stroke="black" points="1578.36,-152.8 1575.36,-156.8 1554.36,-156.8 1551.36,-152.8 1453.64,-152.8 1453.64,-116.8 1578.36,-116.8 1578.36,-152.8"/>
<text text-anchor="middle" x="1516" y="-130.6" font-family="Times,serif" font-size="14.00">MatDividerModule</text>
</g>
<!-- MatDividerModule&#45;&gt;MaterialModule -->
<g id="edge33" class="edge">
<title>MatDividerModule&#45;&gt;MaterialModule</title>
<path fill="none" stroke="black" d="M1516,-116.5C1516,-98.53 1516,-73.8 1516,-73.8 1516,-73.8 2329.46,-73.8 2329.46,-73.8"/>
<polygon fill="black" stroke="black" points="2329.46,-77.3 2339.46,-73.8 2329.46,-70.3 2329.46,-77.3"/>
</g>
<!-- MatIconModule -->
<g id="node31" class="node">
<title>MatIconModule</title>
<polygon fill="#8dd3c7" stroke="black" points="1435.47,-152.8 1432.47,-156.8 1411.47,-156.8 1408.47,-152.8 1328.53,-152.8 1328.53,-116.8 1435.47,-116.8 1435.47,-152.8"/>
<text text-anchor="middle" x="1382" y="-130.6" font-family="Times,serif" font-size="14.00">MatIconModule</text>
</g>
<!-- MatIconModule&#45;&gt;MaterialModule -->
<g id="edge34" class="edge">
<title>MatIconModule&#45;&gt;MaterialModule</title>
<path fill="none" stroke="black" d="M1382,-116.58C1382,-97.97 1382,-71.8 1382,-71.8 1382,-71.8 2329.36,-71.8 2329.36,-71.8"/>
<polygon fill="black" stroke="black" points="2329.36,-75.3 2339.36,-71.8 2329.36,-68.3 2329.36,-75.3"/>
</g>
<!-- MatTooltipModule -->
<g id="node32" class="node">
<title>MatTooltipModule</title>
<polygon fill="#8dd3c7" stroke="black" points="1310.82,-152.8 1307.82,-156.8 1286.82,-156.8 1283.82,-152.8 1187.18,-152.8 1187.18,-116.8 1310.82,-116.8 1310.82,-152.8"/>
<text text-anchor="middle" x="1249" y="-130.6" font-family="Times,serif" font-size="14.00">MatTooltipModule</text>
</g>
<!-- MatTooltipModule&#45;&gt;MaterialModule -->
<g id="edge35" class="edge">
<title>MatTooltipModule&#45;&gt;MaterialModule</title>
<path fill="none" stroke="black" d="M1249,-116.69C1249,-97.46 1249,-69.8 1249,-69.8 1249,-69.8 2329.36,-69.8 2329.36,-69.8"/>
<polygon fill="black" stroke="black" points="2329.36,-73.3 2339.36,-69.8 2329.36,-66.3 2329.36,-73.3"/>
</g>
<!-- MatDatepickerModule -->
<g id="node33" class="node">
<title>MatDatepickerModule</title>
<polygon fill="#8dd3c7" stroke="black" points="2299.51,-152.8 2296.51,-156.8 2275.51,-156.8 2272.51,-152.8 2156.49,-152.8 2156.49,-116.8 2299.51,-116.8 2299.51,-152.8"/>
<text text-anchor="middle" x="2228" y="-130.6" font-family="Times,serif" font-size="14.00">MatDatepickerModule</text>
</g>
<!-- MatDatepickerModule&#45;&gt;MaterialModule -->
<g id="edge36" class="edge">
<title>MatDatepickerModule&#45;&gt;MaterialModule</title>
<path fill="none" stroke="black" d="M2299.72,-125.8C2348.3,-125.8 2403.7,-125.8 2403.7,-125.8 2403.7,-125.8 2403.7,-94.82 2403.7,-94.82"/>
<polygon fill="black" stroke="black" points="2407.2,-94.82 2403.7,-84.82 2400.2,-94.82 2407.2,-94.82"/>
</g>
<!-- MatNativeDateModule -->
<g id="node34" class="node">
<title>MatNativeDateModule</title>
<polygon fill="#8dd3c7" stroke="black" points="2137.84,-152.8 2134.84,-156.8 2113.84,-156.8 2110.84,-152.8 1992.16,-152.8 1992.16,-116.8 2137.84,-116.8 2137.84,-152.8"/>
<text text-anchor="middle" x="2065" y="-130.6" font-family="Times,serif" font-size="14.00">MatNativeDateModule</text>
</g>
<!-- MatNativeDateModule&#45;&gt;MaterialModule -->
<g id="edge37" class="edge">
<title>MatNativeDateModule&#45;&gt;MaterialModule</title>
<path fill="none" stroke="black" d="M2065,-116.61C2065,-101.62 2065,-82.8 2065,-82.8 2065,-82.8 2329.2,-82.8 2329.2,-82.8"/>
<polygon fill="black" stroke="black" points="2329.2,-86.3 2339.2,-82.8 2329.2,-79.3 2329.2,-86.3"/>
</g>
</g>
</svg>
