<?xml version="1.0" encoding="UTF-8" standalone="no"?>
<!DOCTYPE svg PUBLIC "-//W3C//DTD SVG 1.1//EN"
 "http://www.w3.org/Graphics/SVG/1.1/DTD/svg11.dtd">
<!-- Generated by graphviz version 2.47.3 (20210619.1520)
 -->
<!-- Title: dependencies Pages: 1 -->
<svg width="799pt" height="174pt"
 viewBox="0.00 0.00 799.00 173.80" xmlns="http://www.w3.org/2000/svg" xmlns:xlink="http://www.w3.org/1999/xlink">
<g id="graph0" class="graph" transform="scale(1 1) rotate(0) translate(4 169.8)">
<title>dependencies</title>
<polygon fill="white" stroke="transparent" points="-4,4 -4,-169.8 795,-169.8 795,4 -4,4"/>
<text text-anchor="middle" x="395.5" y="-8.2" font-family="sans-serif" font-size="14.00">dependencies</text>
<g id="clust1" class="cluster">
<title>cluster_AuthenticationModule</title>
<polygon fill="none" stroke="black" stroke-dasharray="1,5" points="8,-32.8 8,-157.8 783,-157.8 783,-32.8 8,-32.8"/>
</g>
<g id="clust2" class="cluster">
<title>cluster_AuthenticationModule_declarations</title>
<polygon fill="none" stroke="black" points="645,-40.8 645,-92.8 775,-92.8 775,-40.8 645,-40.8"/>
</g>
<g id="clust4" class="cluster">
<title>cluster_AuthenticationModule_imports</title>
<polygon fill="none" stroke="black" points="16,-40.8 16,-92.8 637,-92.8 637,-40.8 16,-40.8"/>
</g>
<!-- LoginComponent -->
<g id="node1" class="node">
<title>LoginComponent</title>
<polygon fill="#ffffb3" stroke="black" points="767.28,-84.8 652.72,-84.8 652.72,-48.8 767.28,-48.8 767.28,-84.8"/>
<text text-anchor="middle" x="710" y="-62.6" font-family="Times,serif" font-size="14.00">LoginComponent</text>
</g>
<!-- AuthenticationModule -->
<g id="node2" class="node">
<title>AuthenticationModule</title>
<polygon fill="#8dd3c7" stroke="black" points="476.25,-149.8 473.25,-153.8 452.25,-153.8 449.25,-149.8 333.75,-149.8 333.75,-113.8 476.25,-113.8 476.25,-149.8"/>
<text text-anchor="middle" x="405" y="-127.6" font-family="Times,serif" font-size="14.00">AuthenticationModule</text>
</g>
<!-- LoginComponent&#45;&gt;AuthenticationModule -->
<g id="edge1" class="edge">
<title>LoginComponent&#45;&gt;AuthenticationModule</title>
<path fill="none" stroke="black" d="M710,-85.08C710,-106.12 710,-137.8 710,-137.8 710,-137.8 486.51,-137.8 486.51,-137.8"/>
<polygon fill="black" stroke="black" points="486.51,-134.3 476.51,-137.8 486.51,-141.3 486.51,-134.3"/>
</g>
<!-- CommonModule -->
<g id="node3" class="node">
<title>CommonModule</title>
<polygon fill="#8dd3c7" stroke="black" points="628.67,-84.8 625.67,-88.8 604.67,-88.8 601.67,-84.8 517.33,-84.8 517.33,-48.8 628.67,-48.8 628.67,-84.8"/>
<text text-anchor="middle" x="573" y="-62.6" font-family="Times,serif" font-size="14.00">CommonModule</text>
</g>
<!-- CommonModule&#45;&gt;AuthenticationModule -->
<g id="edge2" class="edge">
<title>CommonModule&#45;&gt;AuthenticationModule</title>
<path fill="none" stroke="black" d="M573,-84.82C573,-102.17 573,-125.8 573,-125.8 573,-125.8 486.73,-125.8 486.73,-125.8"/>
<polygon fill="black" stroke="black" points="486.73,-122.3 476.73,-125.8 486.73,-129.3 486.73,-122.3"/>
</g>
<!-- AuthenticationRoutingModule -->
<g id="node4" class="node">
<title>AuthenticationRoutingModule</title>
<polygon fill="#8dd3c7" stroke="black" points="498.87,-84.8 495.87,-88.8 474.87,-88.8 471.87,-84.8 311.13,-84.8 311.13,-48.8 498.87,-48.8 498.87,-84.8"/>
<text text-anchor="middle" x="405" y="-62.6" font-family="Times,serif" font-size="14.00">AuthenticationRoutingModule</text>
</g>
<!-- AuthenticationRoutingModule&#45;&gt;AuthenticationModule -->
<g id="edge3" class="edge">
<title>AuthenticationRoutingModule&#45;&gt;AuthenticationModule</title>
<path fill="none" stroke="black" d="M405,-84.91C405,-84.91 405,-103.79 405,-103.79"/>
<polygon fill="black" stroke="black" points="401.5,-103.79 405,-113.79 408.5,-103.79 401.5,-103.79"/>
</g>
<!-- ReactiveFormsModule -->
<g id="node5" class="node">
<title>ReactiveFormsModule</title>
<polygon fill="#8dd3c7" stroke="black" points="293.3,-84.8 290.3,-88.8 269.3,-88.8 266.3,-84.8 148.7,-84.8 148.7,-48.8 293.3,-48.8 293.3,-84.8"/>
<text text-anchor="middle" x="221" y="-62.6" font-family="Times,serif" font-size="14.00">ReactiveFormsModule</text>
</g>
<!-- ReactiveFormsModule&#45;&gt;AuthenticationModule -->
<g id="edge4" class="edge">
<title>ReactiveFormsModule&#45;&gt;AuthenticationModule</title>
<path fill="none" stroke="black" d="M221,-84.82C221,-102.17 221,-125.8 221,-125.8 221,-125.8 323.6,-125.8 323.6,-125.8"/>
<polygon fill="black" stroke="black" points="323.6,-129.3 333.6,-125.8 323.6,-122.3 323.6,-129.3"/>
</g>
<!-- MaterialModule -->
<g id="node6" class="node">
<title>MaterialModule</title>
<polygon fill="#8dd3c7" stroke="black" points="130.47,-84.8 127.47,-88.8 106.47,-88.8 103.47,-84.8 23.53,-84.8 23.53,-48.8 130.47,-48.8 130.47,-84.8"/>
<text text-anchor="middle" x="77" y="-62.6" font-family="Times,serif" font-size="14.00">MaterialModule</text>
</g>
<!-- MaterialModule&#45;&gt;AuthenticationModule -->
<g id="edge5" class="edge">
<title>MaterialModule&#45;&gt;AuthenticationModule</title>
<path fill="none" stroke="black" d="M77,-85.08C77,-106.12 77,-137.8 77,-137.8 77,-137.8 323.42,-137.8 323.42,-137.8"/>
<polygon fill="black" stroke="black" points="323.42,-141.3 333.42,-137.8 323.42,-134.3 323.42,-141.3"/>
</g>
</g>
</svg>
