<?xml version="1.0" encoding="UTF-8" standalone="no"?>
<!DOCTYPE svg PUBLIC "-//W3C//DTD SVG 1.1//EN"
 "http://www.w3.org/Graphics/SVG/1.1/DTD/svg11.dtd">
<!-- Generated by graphviz version 2.47.3 (20210619.1520)
 -->
<!-- Title: dependencies Pages: 1 -->
<svg width="6367pt" height="253pt"
 viewBox="0.00 0.00 6367.00 252.80" xmlns="http://www.w3.org/2000/svg" xmlns:xlink="http://www.w3.org/1999/xlink">
<g id="graph0" class="graph" transform="scale(1 1) rotate(0) translate(4 248.8)">
<title>dependencies</title>
<polygon fill="white" stroke="transparent" points="-4,4 -4,-248.8 6363,-248.8 6363,4 -4,4"/>
<text text-anchor="middle" x="3179.5" y="-8.2" font-family="sans-serif" font-size="14.00">dependencies</text>
<g id="clust1" class="cluster">
<title>cluster_AppModule</title>
<polygon fill="none" stroke="black" stroke-dasharray="1,5" points="2571,-32.8 2571,-236.8 3458,-236.8 3458,-32.8 2571,-32.8"/>
</g>
<g id="clust2" class="cluster">
<title>cluster_AppModule_declarations</title>
<polygon fill="none" stroke="black" points="3172,-40.8 3172,-92.8 3450,-92.8 3450,-40.8 3172,-40.8"/>
</g>
<g id="clust5" class="cluster">
<title>cluster_AppModule_imports</title>
<polygon fill="none" stroke="black" points="2579,-40.8 2579,-92.8 3164,-92.8 3164,-40.8 2579,-40.8"/>
</g>
<g id="clust7" class="cluster">
<title>cluster_AppModule_bootstrap</title>
<polygon fill="none" stroke="black" points="2945,-176.8 2945,-228.8 3069,-228.8 3069,-176.8 2945,-176.8"/>
</g>
<g id="clust9" class="cluster">
<title>cluster_AuthenticationModule</title>
<polygon fill="none" stroke="black" stroke-dasharray="1,5" points="3466,-32.8 3466,-160.8 4116,-160.8 4116,-32.8 3466,-32.8"/>
</g>
<g id="clust10" class="cluster">
<title>cluster_AuthenticationModule_declarations</title>
<polygon fill="none" stroke="black" points="3474,-40.8 3474,-92.8 3604,-92.8 3604,-40.8 3474,-40.8"/>
</g>
<g id="clust12" class="cluster">
<title>cluster_AuthenticationModule_imports</title>
<polygon fill="none" stroke="black" points="3612,-40.8 3612,-92.8 4108,-92.8 4108,-40.8 3612,-40.8"/>
</g>
<g id="clust16" class="cluster">
<title>cluster_AuthenticationRoutingModule</title>
<polygon fill="none" stroke="black" stroke-dasharray="1,5" points="4124,-100.8 4124,-168.8 4464,-168.8 4464,-100.8 4124,-100.8"/>
</g>
<g id="clust18" class="cluster">
<title>cluster_AuthenticationRoutingModule_imports</title>
<polygon fill="none" stroke="black" points="4258,-108.8 4258,-160.8 4456,-160.8 4456,-108.8 4258,-108.8"/>
</g>
<g id="clust19" class="cluster">
<title>cluster_AuthenticationRoutingModule_exports</title>
<polygon fill="none" stroke="black" points="4132,-108.8 4132,-160.8 4250,-160.8 4250,-108.8 4132,-108.8"/>
</g>
<g id="clust22" class="cluster">
<title>cluster_ChatModule</title>
<polygon fill="none" stroke="black" stroke-dasharray="1,5" points="4472,-32.8 4472,-160.8 6351,-160.8 6351,-32.8 4472,-32.8"/>
</g>
<g id="clust23" class="cluster">
<title>cluster_ChatModule_declarations</title>
<polygon fill="none" stroke="black" points="4636,-40.8 4636,-92.8 6343,-92.8 6343,-40.8 4636,-40.8"/>
</g>
<g id="clust35" class="cluster">
<title>cluster_ChatModule_imports</title>
<polygon fill="none" stroke="black" points="4480,-40.8 4480,-92.8 4628,-92.8 4628,-40.8 4480,-40.8"/>
</g>
<g id="clust45" class="cluster">
<title>cluster_MaterialModule</title>
<polygon fill="none" stroke="black" stroke-dasharray="1,5" points="8,-100.8 8,-168.8 2563,-168.8 2563,-100.8 8,-100.8"/>
</g>
<g id="clust47" class="cluster">
<title>cluster_MaterialModule_imports</title>
<polygon fill="none" stroke="black" points="1305,-108.8 1305,-160.8 2555,-160.8 2555,-108.8 1305,-108.8"/>
</g>
<g id="clust48" class="cluster">
<title>cluster_MaterialModule_exports</title>
<polygon fill="none" stroke="black" points="16,-108.8 16,-160.8 1297,-160.8 1297,-108.8 16,-108.8"/>
</g>
<!-- AppComponent -->
<g id="node1" class="node">
<title>AppComponent</title>
<polygon fill="#ffffb3" stroke="black" points="3441.94,-84.8 3336.06,-84.8 3336.06,-48.8 3441.94,-48.8 3441.94,-84.8"/>
<text text-anchor="middle" x="3389" y="-62.6" font-family="Times,serif" font-size="14.00">AppComponent</text>
</g>
<!-- AppModule -->
<g id="node3" class="node">
<title>AppModule</title>
<polygon fill="#8dd3c7" stroke="black" points="3048.66,-152.8 3045.66,-156.8 3024.66,-156.8 3021.66,-152.8 2965.34,-152.8 2965.34,-116.8 3048.66,-116.8 3048.66,-152.8"/>
<text text-anchor="middle" x="3007" y="-130.6" font-family="Times,serif" font-size="14.00">AppModule</text>
</g>
<!-- AppComponent&#45;&gt;AppModule -->
<g id="edge1" class="edge">
<title>AppComponent&#45;&gt;AppModule</title>
<path fill="none" stroke="black" d="M3389,-85.02C3389,-105.17 3389,-134.8 3389,-134.8 3389,-134.8 3058.97,-134.8 3058.97,-134.8"/>
<polygon fill="black" stroke="black" points="3058.97,-131.3 3048.97,-134.8 3058.97,-138.3 3058.97,-131.3"/>
</g>
<!-- ErrorPageComponent -->
<g id="node2" class="node">
<title>ErrorPageComponent</title>
<polygon fill="#ffffb3" stroke="black" points="3318.08,-84.8 3179.92,-84.8 3179.92,-48.8 3318.08,-48.8 3318.08,-84.8"/>
<text text-anchor="middle" x="3249" y="-62.6" font-family="Times,serif" font-size="14.00">ErrorPageComponent</text>
</g>
<!-- ErrorPageComponent&#45;&gt;AppModule -->
<g id="edge2" class="edge">
<title>ErrorPageComponent&#45;&gt;AppModule</title>
<path fill="none" stroke="black" d="M3249,-84.82C3249,-102.17 3249,-125.8 3249,-125.8 3249,-125.8 3058.88,-125.8 3058.88,-125.8"/>
<polygon fill="black" stroke="black" points="3058.88,-122.3 3048.88,-125.8 3058.88,-129.3 3058.88,-122.3"/>
</g>
<!-- AppComponent  -->
<g id="node8" class="node">
<title>AppComponent </title>
<polygon fill="#80b1d3" stroke="black" points="3061.44,-220.8 2952.56,-220.8 2952.56,-184.8 3061.44,-184.8 3061.44,-220.8"/>
<text text-anchor="middle" x="3007" y="-198.6" font-family="Times,serif" font-size="14.00">AppComponent </text>
</g>
<!-- AppModule&#45;&gt;AppComponent  -->
<g id="edge7" class="edge">
<title>AppModule&#45;&gt;AppComponent </title>
<path fill="none" stroke="black" stroke-dasharray="1,5" d="M3007,-153.02C3007,-153.02 3007,-174.53 3007,-174.53"/>
<polygon fill="black" stroke="black" points="3003.5,-174.53 3007,-184.53 3010.5,-174.53 3003.5,-174.53"/>
</g>
<!-- BrowserModule -->
<g id="node4" class="node">
<title>BrowserModule</title>
<polygon fill="#8dd3c7" stroke="black" points="2818.47,-84.8 2815.47,-88.8 2794.47,-88.8 2791.47,-84.8 2711.53,-84.8 2711.53,-48.8 2818.47,-48.8 2818.47,-84.8"/>
<text text-anchor="middle" x="2765" y="-62.6" font-family="Times,serif" font-size="14.00">BrowserModule</text>
</g>
<!-- BrowserModule&#45;&gt;AppModule -->
<g id="edge3" class="edge">
<title>BrowserModule&#45;&gt;AppModule</title>
<path fill="none" stroke="black" d="M2765,-85.07C2765,-103.36 2765,-128.8 2765,-128.8 2765,-128.8 2955.12,-128.8 2955.12,-128.8"/>
<polygon fill="black" stroke="black" points="2955.12,-132.3 2965.12,-128.8 2955.12,-125.3 2955.12,-132.3"/>
</g>
<!-- AppRoutingModule -->
<g id="node5" class="node">
<title>AppRoutingModule</title>
<polygon fill="#8dd3c7" stroke="black" points="3156.27,-84.8 3153.27,-88.8 3132.27,-88.8 3129.27,-84.8 3027.73,-84.8 3027.73,-48.8 3156.27,-48.8 3156.27,-84.8"/>
<text text-anchor="middle" x="3092" y="-62.6" font-family="Times,serif" font-size="14.00">AppRoutingModule</text>
</g>
<!-- AppRoutingModule&#45;&gt;AppModule -->
<g id="edge4" class="edge">
<title>AppRoutingModule&#45;&gt;AppModule</title>
<path fill="none" stroke="black" d="M3038.22,-85.02C3038.22,-85.02 3038.22,-106.53 3038.22,-106.53"/>
<polygon fill="black" stroke="black" points="3034.72,-106.53 3038.22,-116.53 3041.72,-106.53 3034.72,-106.53"/>
</g>
<!-- BrowserAnimationsModule -->
<g id="node6" class="node">
<title>BrowserAnimationsModule</title>
<polygon fill="#8dd3c7" stroke="black" points="3009.3,-84.8 3006.3,-88.8 2985.3,-88.8 2982.3,-84.8 2836.7,-84.8 2836.7,-48.8 3009.3,-48.8 3009.3,-84.8"/>
<text text-anchor="middle" x="2923" y="-62.6" font-family="Times,serif" font-size="14.00">BrowserAnimationsModule</text>
</g>
<!-- BrowserAnimationsModule&#45;&gt;AppModule -->
<g id="edge5" class="edge">
<title>BrowserAnimationsModule&#45;&gt;AppModule</title>
<path fill="none" stroke="black" d="M2987.16,-85.02C2987.16,-85.02 2987.16,-106.53 2987.16,-106.53"/>
<polygon fill="black" stroke="black" points="2983.66,-106.53 2987.16,-116.53 2990.66,-106.53 2983.66,-106.53"/>
</g>
<!-- MaterialModule -->
<g id="node7" class="node">
<title>MaterialModule</title>
<polygon fill="#8dd3c7" stroke="black" points="2693.47,-84.8 2690.47,-88.8 2669.47,-88.8 2666.47,-84.8 2586.53,-84.8 2586.53,-48.8 2693.47,-48.8 2693.47,-84.8"/>
<text text-anchor="middle" x="2640" y="-62.6" font-family="Times,serif" font-size="14.00">MaterialModule</text>
</g>
<!-- MaterialModule&#45;&gt;AppModule -->
<g id="edge6" class="edge">
<title>MaterialModule&#45;&gt;AppModule</title>
<path fill="none" stroke="black" d="M2666.74,-85.09C2666.74,-107.01 2666.74,-140.8 2666.74,-140.8 2666.74,-140.8 2955.28,-140.8 2955.28,-140.8"/>
<polygon fill="black" stroke="black" points="2955.28,-144.3 2965.28,-140.8 2955.28,-137.3 2955.28,-144.3"/>
</g>
<!-- AuthenticationModule -->
<g id="node10" class="node">
<title>AuthenticationModule</title>
<polygon fill="#8dd3c7" stroke="black" points="3785.25,-152.8 3782.25,-156.8 3761.25,-156.8 3758.25,-152.8 3642.75,-152.8 3642.75,-116.8 3785.25,-116.8 3785.25,-152.8"/>
<text text-anchor="middle" x="3714" y="-130.6" font-family="Times,serif" font-size="14.00">AuthenticationModule</text>
</g>
<!-- MaterialModule&#45;&gt;AuthenticationModule -->
<g id="edge12" class="edge">
<title>MaterialModule&#45;&gt;AuthenticationModule</title>
<path fill="none" stroke="black" d="M2613.26,-84.91C2613.26,-94.7 2613.26,-104.8 2613.26,-104.8 2613.26,-104.8 3690.21,-104.8 3690.21,-104.8 3690.21,-104.8 3690.21,-106.66 3690.21,-106.66"/>
<polygon fill="black" stroke="black" points="3686.71,-106.66 3690.21,-116.66 3693.71,-106.66 3686.71,-106.66"/>
</g>
<!-- ChatModule -->
<g id="node27" class="node">
<title>ChatModule</title>
<polygon fill="#8dd3c7" stroke="black" points="5225.99,-152.8 5222.99,-156.8 5201.99,-156.8 5198.99,-152.8 5140.01,-152.8 5140.01,-116.8 5225.99,-116.8 5225.99,-152.8"/>
<text text-anchor="middle" x="5183" y="-130.6" font-family="Times,serif" font-size="14.00">ChatModule</text>
</g>
<!-- MaterialModule&#45;&gt;ChatModule -->
<g id="edge28" class="edge">
<title>MaterialModule&#45;&gt;ChatModule</title>
<path fill="none" stroke="black" d="M2640,-84.83C2640,-91.65 2640,-97.8 2640,-97.8 2640,-97.8 5161.5,-97.8 5161.5,-97.8 5161.5,-97.8 5161.5,-106.73 5161.5,-106.73"/>
<polygon fill="black" stroke="black" points="5158,-106.73 5161.5,-116.73 5165,-106.73 5158,-106.73"/>
</g>
<!-- MatInputModule  -->
<g id="node38" class="node">
<title>MatInputModule </title>
<polygon fill="#fb8072" stroke="black" points="1163.65,-152.8 1048.35,-152.8 1048.35,-116.8 1163.65,-116.8 1163.65,-152.8"/>
<text text-anchor="middle" x="1106" y="-130.6" font-family="Times,serif" font-size="14.00">MatInputModule </text>
</g>
<!-- MaterialModule&#45;&gt;MatInputModule  -->
<g id="edge41" class="edge">
<title>MaterialModule&#45;&gt;MatInputModule </title>
<path fill="none" stroke="black" stroke-dasharray="5,2" d="M2586.3,-64.8C2314.8,-64.8 1106,-64.8 1106,-64.8 1106,-64.8 1106,-106.77 1106,-106.77"/>
<polygon fill="black" stroke="black" points="1102.5,-106.77 1106,-116.77 1109.5,-106.77 1102.5,-106.77"/>
</g>
<!-- MatCardModule  -->
<g id="node39" class="node">
<title>MatCardModule </title>
<polygon fill="#fb8072" stroke="black" points="1030.31,-152.8 917.69,-152.8 917.69,-116.8 1030.31,-116.8 1030.31,-152.8"/>
<text text-anchor="middle" x="974" y="-130.6" font-family="Times,serif" font-size="14.00">MatCardModule </text>
</g>
<!-- MaterialModule&#45;&gt;MatCardModule  -->
<g id="edge42" class="edge">
<title>MaterialModule&#45;&gt;MatCardModule </title>
<path fill="none" stroke="black" stroke-dasharray="5,2" d="M2586.46,-62.8C2301.3,-62.8 974,-62.8 974,-62.8 974,-62.8 974,-106.63 974,-106.63"/>
<polygon fill="black" stroke="black" points="970.5,-106.63 974,-116.63 977.5,-106.63 970.5,-106.63"/>
</g>
<!-- MatButtonModule  -->
<g id="node40" class="node">
<title>MatButtonModule </title>
<polygon fill="#fb8072" stroke="black" points="899.72,-152.8 776.28,-152.8 776.28,-116.8 899.72,-116.8 899.72,-152.8"/>
<text text-anchor="middle" x="838" y="-130.6" font-family="Times,serif" font-size="14.00">MatButtonModule </text>
</g>
<!-- MaterialModule&#45;&gt;MatButtonModule  -->
<g id="edge43" class="edge">
<title>MaterialModule&#45;&gt;MatButtonModule </title>
<path fill="none" stroke="black" stroke-dasharray="5,2" d="M2586.07,-60.8C2286.24,-60.8 838,-60.8 838,-60.8 838,-60.8 838,-106.51 838,-106.51"/>
<polygon fill="black" stroke="black" points="834.5,-106.51 838,-116.51 841.5,-106.51 834.5,-106.51"/>
</g>
<!-- MatDividerModule  -->
<g id="node41" class="node">
<title>MatDividerModule </title>
<polygon fill="#fb8072" stroke="black" points="758.36,-152.8 629.64,-152.8 629.64,-116.8 758.36,-116.8 758.36,-152.8"/>
<text text-anchor="middle" x="694" y="-130.6" font-family="Times,serif" font-size="14.00">MatDividerModule </text>
</g>
<!-- MaterialModule&#45;&gt;MatDividerModule  -->
<g id="edge44" class="edge">
<title>MaterialModule&#45;&gt;MatDividerModule </title>
<path fill="none" stroke="black" stroke-dasharray="5,2" d="M2586.43,-58.8C2273.34,-58.8 694,-58.8 694,-58.8 694,-58.8 694,-106.79 694,-106.79"/>
<polygon fill="black" stroke="black" points="690.5,-106.79 694,-116.79 697.5,-106.79 690.5,-106.79"/>
</g>
<!-- MatIconModule  -->
<g id="node42" class="node">
<title>MatIconModule </title>
<polygon fill="#fb8072" stroke="black" points="612.48,-152.8 501.52,-152.8 501.52,-116.8 612.48,-116.8 612.48,-152.8"/>
<text text-anchor="middle" x="557" y="-130.6" font-family="Times,serif" font-size="14.00">MatIconModule </text>
</g>
<!-- MaterialModule&#45;&gt;MatIconModule  -->
<g id="edge45" class="edge">
<title>MaterialModule&#45;&gt;MatIconModule </title>
<path fill="none" stroke="black" stroke-dasharray="5,2" d="M2586.42,-56.8C2260.38,-56.8 557,-56.8 557,-56.8 557,-56.8 557,-106.71 557,-106.71"/>
<polygon fill="black" stroke="black" points="553.5,-106.71 557,-116.71 560.5,-106.71 553.5,-106.71"/>
</g>
<!-- MatTooltipModule  -->
<g id="node43" class="node">
<title>MatTooltipModule </title>
<polygon fill="#fb8072" stroke="black" points="483.32,-152.8 356.68,-152.8 356.68,-116.8 483.32,-116.8 483.32,-152.8"/>
<text text-anchor="middle" x="420" y="-130.6" font-family="Times,serif" font-size="14.00">MatTooltipModule </text>
</g>
<!-- MaterialModule&#45;&gt;MatTooltipModule  -->
<g id="edge46" class="edge">
<title>MaterialModule&#45;&gt;MatTooltipModule </title>
<path fill="none" stroke="black" stroke-dasharray="5,2" d="M2586.5,-54.8C2248.18,-54.8 420,-54.8 420,-54.8 420,-54.8 420,-106.65 420,-106.65"/>
<polygon fill="black" stroke="black" points="416.5,-106.65 420,-116.65 423.5,-106.65 416.5,-106.65"/>
</g>
<!-- MatDatepickerModule  -->
<g id="node44" class="node">
<title>MatDatepickerModule </title>
<polygon fill="#fb8072" stroke="black" points="338.51,-152.8 191.49,-152.8 191.49,-116.8 338.51,-116.8 338.51,-152.8"/>
<text text-anchor="middle" x="265" y="-130.6" font-family="Times,serif" font-size="14.00">MatDatepickerModule </text>
</g>
<!-- MaterialModule&#45;&gt;MatDatepickerModule  -->
<g id="edge47" class="edge">
<title>MaterialModule&#45;&gt;MatDatepickerModule </title>
<path fill="none" stroke="black" stroke-dasharray="5,2" d="M2586.5,-52.8C2234.52,-52.8 265,-52.8 265,-52.8 265,-52.8 265,-106.6 265,-106.6"/>
<polygon fill="black" stroke="black" points="261.5,-106.6 265,-116.6 268.5,-106.6 261.5,-106.6"/>
</g>
<!-- MatNativeDateModule  -->
<g id="node45" class="node">
<title>MatNativeDateModule </title>
<polygon fill="#fb8072" stroke="black" points="173.84,-152.8 24.16,-152.8 24.16,-116.8 173.84,-116.8 173.84,-152.8"/>
<text text-anchor="middle" x="99" y="-130.6" font-family="Times,serif" font-size="14.00">MatNativeDateModule </text>
</g>
<!-- MaterialModule&#45;&gt;MatNativeDateModule  -->
<g id="edge48" class="edge">
<title>MaterialModule&#45;&gt;MatNativeDateModule </title>
<path fill="none" stroke="black" stroke-dasharray="5,2" d="M2586.34,-50.8C2219.76,-50.8 99,-50.8 99,-50.8 99,-50.8 99,-106.57 99,-106.57"/>
<polygon fill="black" stroke="black" points="95.5,-106.57 99,-116.57 102.5,-106.57 95.5,-106.57"/>
</g>
<!-- MatListModule  -->
<g id="node46" class="node">
<title>MatListModule </title>
<polygon fill="#fb8072" stroke="black" points="1288.88,-152.8 1181.12,-152.8 1181.12,-116.8 1288.88,-116.8 1288.88,-152.8"/>
<text text-anchor="middle" x="1235" y="-130.6" font-family="Times,serif" font-size="14.00">MatListModule </text>
</g>
<!-- MaterialModule&#45;&gt;MatListModule  -->
<g id="edge49" class="edge">
<title>MaterialModule&#45;&gt;MatListModule </title>
<path fill="none" stroke="black" stroke-dasharray="5,2" d="M2586.21,-66.8C2328.79,-66.8 1235,-66.8 1235,-66.8 1235,-66.8 1235,-106.58 1235,-106.58"/>
<polygon fill="black" stroke="black" points="1231.5,-106.58 1235,-116.58 1238.5,-106.58 1231.5,-106.58"/>
</g>
<!-- LoginComponent -->
<g id="node9" class="node">
<title>LoginComponent</title>
<polygon fill="#ffffb3" stroke="black" points="3596.28,-84.8 3481.72,-84.8 3481.72,-48.8 3596.28,-48.8 3596.28,-84.8"/>
<text text-anchor="middle" x="3539" y="-62.6" font-family="Times,serif" font-size="14.00">LoginComponent</text>
</g>
<!-- LoginComponent&#45;&gt;AuthenticationModule -->
<g id="edge8" class="edge">
<title>LoginComponent&#45;&gt;AuthenticationModule</title>
<path fill="none" stroke="black" d="M3539,-85.05C3539,-107.82 3539,-143.8 3539,-143.8 3539,-143.8 3632.57,-143.8 3632.57,-143.8"/>
<polygon fill="black" stroke="black" points="3632.57,-147.3 3642.57,-143.8 3632.57,-140.3 3632.57,-147.3"/>
</g>
<!-- CommonModule -->
<g id="node11" class="node">
<title>CommonModule</title>
<polygon fill="#8dd3c7" stroke="black" points="3937.67,-84.8 3934.67,-88.8 3913.67,-88.8 3910.67,-84.8 3826.33,-84.8 3826.33,-48.8 3937.67,-48.8 3937.67,-84.8"/>
<text text-anchor="middle" x="3882" y="-62.6" font-family="Times,serif" font-size="14.00">CommonModule</text>
</g>
<!-- CommonModule&#45;&gt;AuthenticationModule -->
<g id="edge9" class="edge">
<title>CommonModule&#45;&gt;AuthenticationModule</title>
<path fill="none" stroke="black" d="M3900.61,-84.82C3900.61,-102.17 3900.61,-125.8 3900.61,-125.8 3900.61,-125.8 3795.35,-125.8 3795.35,-125.8"/>
<polygon fill="black" stroke="black" points="3795.35,-122.3 3785.35,-125.8 3795.35,-129.3 3795.35,-122.3"/>
</g>
<!-- CommonModule&#45;&gt;ChatModule -->
<g id="edge26" class="edge">
<title>CommonModule&#45;&gt;ChatModule</title>
<path fill="none" stroke="black" d="M3863.39,-84.97C3863.39,-88.85 3863.39,-91.8 3863.39,-91.8 3863.39,-91.8 5183,-91.8 5183,-91.8 5183,-91.8 5183,-106.31 5183,-106.31"/>
<polygon fill="black" stroke="black" points="5179.5,-106.31 5183,-116.31 5186.5,-106.31 5179.5,-106.31"/>
</g>
<!-- AuthenticationRoutingModule -->
<g id="node12" class="node">
<title>AuthenticationRoutingModule</title>
<polygon fill="#8dd3c7" stroke="black" points="3807.87,-84.8 3804.87,-88.8 3783.87,-88.8 3780.87,-84.8 3620.13,-84.8 3620.13,-48.8 3807.87,-48.8 3807.87,-84.8"/>
<text text-anchor="middle" x="3714" y="-62.6" font-family="Times,serif" font-size="14.00">AuthenticationRoutingModule</text>
</g>
<!-- AuthenticationRoutingModule&#45;&gt;AuthenticationModule -->
<g id="edge10" class="edge">
<title>AuthenticationRoutingModule&#45;&gt;AuthenticationModule</title>
<path fill="none" stroke="black" d="M3737.79,-85.02C3737.79,-85.02 3737.79,-106.53 3737.79,-106.53"/>
<polygon fill="black" stroke="black" points="3734.29,-106.53 3737.79,-116.53 3741.29,-106.53 3734.29,-106.53"/>
</g>
<!-- RouterModule  -->
<g id="node15" class="node">
<title>RouterModule </title>
<polygon fill="#fb8072" stroke="black" points="4241.65,-152.8 4140.35,-152.8 4140.35,-116.8 4241.65,-116.8 4241.65,-152.8"/>
<text text-anchor="middle" x="4191" y="-130.6" font-family="Times,serif" font-size="14.00">RouterModule </text>
</g>
<!-- AuthenticationRoutingModule&#45;&gt;RouterModule  -->
<g id="edge14" class="edge">
<title>AuthenticationRoutingModule&#45;&gt;RouterModule </title>
<path fill="none" stroke="black" stroke-dasharray="5,2" d="M3800.42,-85.05C3800.42,-107.82 3800.42,-143.8 3800.42,-143.8 3800.42,-143.8 4130.34,-143.8 4130.34,-143.8"/>
<polygon fill="black" stroke="black" points="4130.34,-147.3 4140.34,-143.8 4130.34,-140.3 4130.34,-147.3"/>
</g>
<!-- ReactiveFormsModule -->
<g id="node13" class="node">
<title>ReactiveFormsModule</title>
<polygon fill="#8dd3c7" stroke="black" points="4100.3,-84.8 4097.3,-88.8 4076.3,-88.8 4073.3,-84.8 3955.7,-84.8 3955.7,-48.8 4100.3,-48.8 4100.3,-84.8"/>
<text text-anchor="middle" x="4028" y="-62.6" font-family="Times,serif" font-size="14.00">ReactiveFormsModule</text>
</g>
<!-- ReactiveFormsModule&#45;&gt;AuthenticationModule -->
<g id="edge11" class="edge">
<title>ReactiveFormsModule&#45;&gt;AuthenticationModule</title>
<path fill="none" stroke="black" d="M4028,-85.02C4028,-105.17 4028,-134.8 4028,-134.8 4028,-134.8 3795.64,-134.8 3795.64,-134.8"/>
<polygon fill="black" stroke="black" points="3795.64,-131.3 3785.64,-134.8 3795.64,-138.3 3795.64,-131.3"/>
</g>
<!-- ReactiveFormsModule&#45;&gt;ChatModule -->
<g id="edge29" class="edge">
<title>ReactiveFormsModule&#45;&gt;ChatModule</title>
<path fill="none" stroke="black" d="M4100.17,-60.8C4225,-60.8 4468.03,-60.8 4468.03,-60.8 4468.03,-60.8 4468.03,-147.8 4468.03,-147.8 4468.03,-147.8 5129.89,-147.8 5129.89,-147.8"/>
<polygon fill="black" stroke="black" points="5129.89,-151.3 5139.89,-147.8 5129.89,-144.3 5129.89,-151.3"/>
</g>
<!-- RouterModule.forChild(args) -->
<g id="node14" class="node">
<title>RouterModule.forChild(args)</title>
<polygon fill="#8dd3c7" stroke="black" points="4447.73,-152.8 4444.73,-156.8 4423.73,-156.8 4420.73,-152.8 4266.27,-152.8 4266.27,-116.8 4447.73,-116.8 4447.73,-152.8"/>
<text text-anchor="middle" x="4357" y="-130.6" font-family="Times,serif" font-size="14.00">RouterModule.forChild(args)</text>
</g>
<!-- RouterModule.forChild(args)&#45;&gt;AuthenticationRoutingModule -->
<g id="edge13" class="edge">
<title>RouterModule.forChild(args)&#45;&gt;AuthenticationRoutingModule</title>
<path fill="none" stroke="black" d="M4357,-116.61C4357,-113.26 4357,-110.8 4357,-110.8 4357,-110.8 3792.9,-110.8 3792.9,-110.8 3792.9,-110.8 3792.9,-94.95 3792.9,-94.95"/>
<polygon fill="black" stroke="black" points="3796.4,-94.95 3792.9,-84.95 3789.4,-94.95 3796.4,-94.95"/>
</g>
<!-- ChatRoutingModule -->
<g id="node28" class="node">
<title>ChatRoutingModule</title>
<polygon fill="#8dd3c7" stroke="black" points="4619.61,-84.8 4616.61,-88.8 4595.61,-88.8 4592.61,-84.8 4488.39,-84.8 4488.39,-48.8 4619.61,-48.8 4619.61,-84.8"/>
<text text-anchor="middle" x="4554" y="-62.6" font-family="Times,serif" font-size="14.00">ChatRoutingModule</text>
</g>
<!-- RouterModule.forChild(args)&#45;&gt;ChatRoutingModule -->
<g id="edge30" class="edge">
<title>RouterModule.forChild(args)&#45;&gt;ChatRoutingModule</title>
<path fill="none" stroke="black" d="M4447.65,-122.8C4490.39,-122.8 4532.15,-122.8 4532.15,-122.8 4532.15,-122.8 4532.15,-94.83 4532.15,-94.83"/>
<polygon fill="black" stroke="black" points="4535.65,-94.83 4532.15,-84.83 4528.65,-94.83 4535.65,-94.83"/>
</g>
<!-- ChatContainerComponent -->
<g id="node16" class="node">
<title>ChatContainerComponent</title>
<polygon fill="#ffffb3" stroke="black" points="6335.48,-84.8 6172.52,-84.8 6172.52,-48.8 6335.48,-48.8 6335.48,-84.8"/>
<text text-anchor="middle" x="6254" y="-62.6" font-family="Times,serif" font-size="14.00">ChatContainerComponent</text>
</g>
<!-- ChatContainerComponent&#45;&gt;ChatModule -->
<g id="edge15" class="edge">
<title>ChatContainerComponent&#45;&gt;ChatModule</title>
<path fill="none" stroke="black" d="M6254,-85C6254,-109.16 6254,-148.8 6254,-148.8 6254,-148.8 5236.31,-148.8 5236.31,-148.8"/>
<polygon fill="black" stroke="black" points="5236.31,-145.3 5226.31,-148.8 5236.31,-152.3 5236.31,-145.3"/>
</g>
<!-- MessagesContainerComponent -->
<g id="node17" class="node">
<title>MessagesContainerComponent</title>
<polygon fill="#ffffb3" stroke="black" points="6154.46,-84.8 5963.54,-84.8 5963.54,-48.8 6154.46,-48.8 6154.46,-84.8"/>
<text text-anchor="middle" x="6059" y="-62.6" font-family="Times,serif" font-size="14.00">MessagesContainerComponent</text>
</g>
<!-- MessagesContainerComponent&#45;&gt;ChatModule -->
<g id="edge16" class="edge">
<title>MessagesContainerComponent&#45;&gt;ChatModule</title>
<path fill="none" stroke="black" d="M6059,-85.05C6059,-107.82 6059,-143.8 6059,-143.8 6059,-143.8 5236.14,-143.8 5236.14,-143.8"/>
<polygon fill="black" stroke="black" points="5236.14,-140.3 5226.14,-143.8 5236.14,-147.3 5236.14,-140.3"/>
</g>
<!-- ChatPanelComponent -->
<g id="node18" class="node">
<title>ChatPanelComponent</title>
<polygon fill="#ffffb3" stroke="black" points="5945.38,-84.8 5806.62,-84.8 5806.62,-48.8 5945.38,-48.8 5945.38,-84.8"/>
<text text-anchor="middle" x="5876" y="-62.6" font-family="Times,serif" font-size="14.00">ChatPanelComponent</text>
</g>
<!-- ChatPanelComponent&#45;&gt;ChatModule -->
<g id="edge17" class="edge">
<title>ChatPanelComponent&#45;&gt;ChatModule</title>
<path fill="none" stroke="black" d="M5876,-84.84C5876,-106.46 5876,-139.8 5876,-139.8 5876,-139.8 5236.09,-139.8 5236.09,-139.8"/>
<polygon fill="black" stroke="black" points="5236.09,-136.3 5226.09,-139.8 5236.09,-143.3 5236.09,-136.3"/>
</g>
<!-- MessageComponent -->
<g id="node19" class="node">
<title>MessageComponent</title>
<polygon fill="#ffffb3" stroke="black" points="5788.31,-84.8 5657.69,-84.8 5657.69,-48.8 5788.31,-48.8 5788.31,-84.8"/>
<text text-anchor="middle" x="5723" y="-62.6" font-family="Times,serif" font-size="14.00">MessageComponent</text>
</g>
<!-- MessageComponent&#45;&gt;ChatModule -->
<g id="edge18" class="edge">
<title>MessageComponent&#45;&gt;ChatModule</title>
<path fill="none" stroke="black" d="M5723,-85.02C5723,-105.17 5723,-134.8 5723,-134.8 5723,-134.8 5236.28,-134.8 5236.28,-134.8"/>
<polygon fill="black" stroke="black" points="5236.28,-131.3 5226.28,-134.8 5236.28,-138.3 5236.28,-131.3"/>
</g>
<!-- CompleteComponent -->
<g id="node20" class="node">
<title>CompleteComponent</title>
<polygon fill="#ffffb3" stroke="black" points="5639.77,-84.8 5504.23,-84.8 5504.23,-48.8 5639.77,-48.8 5639.77,-84.8"/>
<text text-anchor="middle" x="5572" y="-62.6" font-family="Times,serif" font-size="14.00">CompleteComponent</text>
</g>
<!-- CompleteComponent&#45;&gt;ChatModule -->
<g id="edge19" class="edge">
<title>CompleteComponent&#45;&gt;ChatModule</title>
<path fill="none" stroke="black" d="M5572,-84.97C5572,-103.89 5572,-130.8 5572,-130.8 5572,-130.8 5236.12,-130.8 5236.12,-130.8"/>
<polygon fill="black" stroke="black" points="5236.12,-127.3 5226.12,-130.8 5236.12,-134.3 5236.12,-127.3"/>
</g>
<!-- RateComponent -->
<g id="node21" class="node">
<title>RateComponent</title>
<polygon fill="#ffffb3" stroke="black" points="5486.49,-84.8 5379.51,-84.8 5379.51,-48.8 5486.49,-48.8 5486.49,-84.8"/>
<text text-anchor="middle" x="5433" y="-62.6" font-family="Times,serif" font-size="14.00">RateComponent</text>
</g>
<!-- RateComponent&#45;&gt;ChatModule -->
<g id="edge20" class="edge">
<title>RateComponent&#45;&gt;ChatModule</title>
<path fill="none" stroke="black" d="M5433,-84.82C5433,-102.17 5433,-125.8 5433,-125.8 5433,-125.8 5236.26,-125.8 5236.26,-125.8"/>
<polygon fill="black" stroke="black" points="5236.26,-122.3 5226.26,-125.8 5236.26,-129.3 5236.26,-122.3"/>
</g>
<!-- DateComponent -->
<g id="node22" class="node">
<title>DateComponent</title>
<polygon fill="#ffffb3" stroke="black" points="5361.76,-84.8 5254.24,-84.8 5254.24,-48.8 5361.76,-48.8 5361.76,-84.8"/>
<text text-anchor="middle" x="5308" y="-62.6" font-family="Times,serif" font-size="14.00">DateComponent</text>
</g>
<!-- DateComponent&#45;&gt;ChatModule -->
<g id="edge21" class="edge">
<title>DateComponent&#45;&gt;ChatModule</title>
<path fill="none" stroke="black" d="M5308,-84.81C5308,-100.85 5308,-121.8 5308,-121.8 5308,-121.8 5236.02,-121.8 5236.02,-121.8"/>
<polygon fill="black" stroke="black" points="5236.02,-118.3 5226.02,-121.8 5236.02,-125.3 5236.02,-118.3"/>
</g>
<!-- MapComponent -->
<g id="node23" class="node">
<title>MapComponent</title>
<polygon fill="#ffffb3" stroke="black" points="5236.49,-84.8 5129.51,-84.8 5129.51,-48.8 5236.49,-48.8 5236.49,-84.8"/>
<text text-anchor="middle" x="5183" y="-62.6" font-family="Times,serif" font-size="14.00">MapComponent</text>
</g>
<!-- MapComponent&#45;&gt;ChatModule -->
<g id="edge22" class="edge">
<title>MapComponent&#45;&gt;ChatModule</title>
<path fill="none" stroke="black" d="M5204.5,-85.02C5204.5,-85.02 5204.5,-106.53 5204.5,-106.53"/>
<polygon fill="black" stroke="black" points="5201,-106.53 5204.5,-116.53 5208,-106.53 5201,-106.53"/>
</g>
<!-- ScrollBottomDirective -->
<g id="node24" class="node">
<title>ScrollBottomDirective</title>
<polygon fill="#ffffb3" stroke="black" points="5111.53,-84.8 4968.47,-84.8 4968.47,-48.8 5111.53,-48.8 5111.53,-84.8"/>
<text text-anchor="middle" x="5040" y="-62.6" font-family="Times,serif" font-size="14.00">ScrollBottomDirective</text>
</g>
<!-- ScrollBottomDirective&#45;&gt;ChatModule -->
<g id="edge23" class="edge">
<title>ScrollBottomDirective&#45;&gt;ChatModule</title>
<path fill="none" stroke="black" d="M5040,-85.1C5040,-103.07 5040,-127.8 5040,-127.8 5040,-127.8 5129.71,-127.8 5129.71,-127.8"/>
<polygon fill="black" stroke="black" points="5129.71,-131.3 5139.71,-127.8 5129.71,-124.3 5129.71,-131.3"/>
</g>
<!-- ChatHeaderComponent -->
<g id="node25" class="node">
<title>ChatHeaderComponent</title>
<polygon fill="#ffffb3" stroke="black" points="4950.19,-84.8 4801.81,-84.8 4801.81,-48.8 4950.19,-48.8 4950.19,-84.8"/>
<text text-anchor="middle" x="4876" y="-62.6" font-family="Times,serif" font-size="14.00">ChatHeaderComponent</text>
</g>
<!-- ChatHeaderComponent&#45;&gt;ChatModule -->
<g id="edge24" class="edge">
<title>ChatHeaderComponent&#45;&gt;ChatModule</title>
<path fill="none" stroke="black" d="M4876,-84.83C4876,-104.38 4876,-132.8 4876,-132.8 4876,-132.8 5129.99,-132.8 5129.99,-132.8"/>
<polygon fill="black" stroke="black" points="5129.99,-136.3 5139.99,-132.8 5129.99,-129.3 5129.99,-136.3"/>
</g>
<!-- ResponsesComponent -->
<g id="node26" class="node">
<title>ResponsesComponent</title>
<polygon fill="#ffffb3" stroke="black" points="4784.43,-84.8 4643.57,-84.8 4643.57,-48.8 4784.43,-48.8 4784.43,-84.8"/>
<text text-anchor="middle" x="4714" y="-62.6" font-family="Times,serif" font-size="14.00">ResponsesComponent</text>
</g>
<!-- ResponsesComponent&#45;&gt;ChatModule -->
<g id="edge25" class="edge">
<title>ResponsesComponent&#45;&gt;ChatModule</title>
<path fill="none" stroke="black" d="M4714,-85.08C4714,-106.12 4714,-137.8 4714,-137.8 4714,-137.8 5129.72,-137.8 5129.72,-137.8"/>
<polygon fill="black" stroke="black" points="5129.72,-141.3 5139.72,-137.8 5129.72,-134.3 5129.72,-141.3"/>
</g>
<!-- ChatRoutingModule&#45;&gt;RouterModule  -->
<g id="edge31" class="edge">
<title>ChatRoutingModule&#45;&gt;RouterModule </title>
<path fill="none" stroke="black" stroke-dasharray="5,2" d="M4488.26,-72.8C4383.66,-72.8 4191,-72.8 4191,-72.8 4191,-72.8 4191,-106.53 4191,-106.53"/>
<polygon fill="black" stroke="black" points="4187.5,-106.53 4191,-116.53 4194.5,-106.53 4187.5,-106.53"/>
</g>
<!-- ChatRoutingModule&#45;&gt;ChatModule -->
<g id="edge27" class="edge">
<title>ChatRoutingModule&#45;&gt;ChatModule</title>
<path fill="none" stroke="black" d="M4575.85,-84.81C4575.85,-107.29 4575.85,-142.8 4575.85,-142.8 4575.85,-142.8 5129.82,-142.8 5129.82,-142.8"/>
<polygon fill="black" stroke="black" points="5129.82,-146.3 5139.82,-142.8 5129.82,-139.3 5129.82,-146.3"/>
</g>
<!-- MatInputModule -->
<g id="node29" class="node">
<title>MatInputModule</title>
<polygon fill="#8dd3c7" stroke="black" points="2424.65,-152.8 2421.65,-156.8 2400.65,-156.8 2397.65,-152.8 2313.35,-152.8 2313.35,-116.8 2424.65,-116.8 2424.65,-152.8"/>
<text text-anchor="middle" x="2369" y="-130.6" font-family="Times,serif" font-size="14.00">MatInputModule</text>
</g>
<!-- MatInputModule&#45;&gt;MaterialModule -->
<g id="edge32" class="edge">
<title>MatInputModule&#45;&gt;MaterialModule</title>
<path fill="none" stroke="black" d="M2369,-116.56C2369,-101.23 2369,-81.8 2369,-81.8 2369,-81.8 2576.46,-81.8 2576.46,-81.8"/>
<polygon fill="black" stroke="black" points="2576.46,-85.3 2586.46,-81.8 2576.46,-78.3 2576.46,-85.3"/>
</g>
<!-- MatCardModule -->
<g id="node30" class="node">
<title>MatCardModule</title>
<polygon fill="#8dd3c7" stroke="black" points="2295.81,-152.8 2292.81,-156.8 2271.81,-156.8 2268.81,-152.8 2186.19,-152.8 2186.19,-116.8 2295.81,-116.8 2295.81,-152.8"/>
<text text-anchor="middle" x="2241" y="-130.6" font-family="Times,serif" font-size="14.00">MatCardModule</text>
</g>
<!-- MatCardModule&#45;&gt;MaterialModule -->
<g id="edge33" class="edge">
<title>MatCardModule&#45;&gt;MaterialModule</title>
<path fill="none" stroke="black" d="M2241,-116.79C2241,-100.75 2241,-79.8 2241,-79.8 2241,-79.8 2576.19,-79.8 2576.19,-79.8"/>
<polygon fill="black" stroke="black" points="2576.19,-83.3 2586.19,-79.8 2576.19,-76.3 2576.19,-83.3"/>
</g>
<!-- MatButtonModule -->
<g id="node31" class="node">
<title>MatButtonModule</title>
<polygon fill="#8dd3c7" stroke="black" points="2168.22,-152.8 2165.22,-156.8 2144.22,-156.8 2141.22,-152.8 2047.78,-152.8 2047.78,-116.8 2168.22,-116.8 2168.22,-152.8"/>
<text text-anchor="middle" x="2108" y="-130.6" font-family="Times,serif" font-size="14.00">MatButtonModule</text>
</g>
<!-- MatButtonModule&#45;&gt;MaterialModule -->
<g id="edge34" class="edge">
<title>MatButtonModule&#45;&gt;MaterialModule</title>
<path fill="none" stroke="black" d="M2108,-116.76C2108,-100.07 2108,-77.8 2108,-77.8 2108,-77.8 2576.06,-77.8 2576.06,-77.8"/>
<polygon fill="black" stroke="black" points="2576.06,-81.3 2586.06,-77.8 2576.06,-74.3 2576.06,-81.3"/>
</g>
<!-- MatDividerModule -->
<g id="node32" class="node">
<title>MatDividerModule</title>
<polygon fill="#8dd3c7" stroke="black" points="2029.36,-152.8 2026.36,-156.8 2005.36,-156.8 2002.36,-152.8 1904.64,-152.8 1904.64,-116.8 2029.36,-116.8 2029.36,-152.8"/>
<text text-anchor="middle" x="1967" y="-130.6" font-family="Times,serif" font-size="14.00">MatDividerModule</text>
</g>
<!-- MatDividerModule&#45;&gt;MaterialModule -->
<g id="edge35" class="edge">
<title>MatDividerModule&#45;&gt;MaterialModule</title>
<path fill="none" stroke="black" d="M1967,-116.78C1967,-99.43 1967,-75.8 1967,-75.8 1967,-75.8 2576.35,-75.8 2576.35,-75.8"/>
<polygon fill="black" stroke="black" points="2576.35,-79.3 2586.35,-75.8 2576.35,-72.3 2576.35,-79.3"/>
</g>
<!-- MatIconModule -->
<g id="node33" class="node">
<title>MatIconModule</title>
<polygon fill="#8dd3c7" stroke="black" points="1886.47,-152.8 1883.47,-156.8 1862.47,-156.8 1859.47,-152.8 1779.53,-152.8 1779.53,-116.8 1886.47,-116.8 1886.47,-152.8"/>
<text text-anchor="middle" x="1833" y="-130.6" font-family="Times,serif" font-size="14.00">MatIconModule</text>
</g>
<!-- MatIconModule&#45;&gt;MaterialModule -->
<g id="edge36" class="edge">
<title>MatIconModule&#45;&gt;MaterialModule</title>
<path fill="none" stroke="black" d="M1833,-116.5C1833,-98.53 1833,-73.8 1833,-73.8 1833,-73.8 2576.43,-73.8 2576.43,-73.8"/>
<polygon fill="black" stroke="black" points="2576.43,-77.3 2586.43,-73.8 2576.43,-70.3 2576.43,-77.3"/>
</g>
<!-- MatTooltipModule -->
<g id="node34" class="node">
<title>MatTooltipModule</title>
<polygon fill="#8dd3c7" stroke="black" points="1761.82,-152.8 1758.82,-156.8 1737.82,-156.8 1734.82,-152.8 1638.18,-152.8 1638.18,-116.8 1761.82,-116.8 1761.82,-152.8"/>
<text text-anchor="middle" x="1700" y="-130.6" font-family="Times,serif" font-size="14.00">MatTooltipModule</text>
</g>
<!-- MatTooltipModule&#45;&gt;MaterialModule -->
<g id="edge37" class="edge">
<title>MatTooltipModule&#45;&gt;MaterialModule</title>
<path fill="none" stroke="black" d="M1700,-116.58C1700,-97.97 1700,-71.8 1700,-71.8 1700,-71.8 2576.43,-71.8 2576.43,-71.8"/>
<polygon fill="black" stroke="black" points="2576.43,-75.3 2586.43,-71.8 2576.43,-68.3 2576.43,-75.3"/>
</g>
<!-- MatDatepickerModule -->
<g id="node35" class="node">
<title>MatDatepickerModule</title>
<polygon fill="#8dd3c7" stroke="black" points="1620.51,-152.8 1617.51,-156.8 1596.51,-156.8 1593.51,-152.8 1477.49,-152.8 1477.49,-116.8 1620.51,-116.8 1620.51,-152.8"/>
<text text-anchor="middle" x="1549" y="-130.6" font-family="Times,serif" font-size="14.00">MatDatepickerModule</text>
</g>
<!-- MatDatepickerModule&#45;&gt;MaterialModule -->
<g id="edge38" class="edge">
<title>MatDatepickerModule&#45;&gt;MaterialModule</title>
<path fill="none" stroke="black" d="M1549,-116.69C1549,-97.46 1549,-69.8 1549,-69.8 1549,-69.8 2576.27,-69.8 2576.27,-69.8"/>
<polygon fill="black" stroke="black" points="2576.27,-73.3 2586.27,-69.8 2576.27,-66.3 2576.27,-73.3"/>
</g>
<!-- MatNativeDateModule -->
<g id="node36" class="node">
<title>MatNativeDateModule</title>
<polygon fill="#8dd3c7" stroke="black" points="1458.84,-152.8 1455.84,-156.8 1434.84,-156.8 1431.84,-152.8 1313.16,-152.8 1313.16,-116.8 1458.84,-116.8 1458.84,-152.8"/>
<text text-anchor="middle" x="1386" y="-130.6" font-family="Times,serif" font-size="14.00">MatNativeDateModule</text>
</g>
<!-- MatNativeDateModule&#45;&gt;MaterialModule -->
<g id="edge39" class="edge">
<title>MatNativeDateModule&#45;&gt;MaterialModule</title>
<path fill="none" stroke="black" d="M1386,-116.49C1386,-96.65 1386,-67.8 1386,-67.8 1386,-67.8 2576.52,-67.8 2576.52,-67.8"/>
<polygon fill="black" stroke="black" points="2576.52,-71.3 2586.52,-67.8 2576.52,-64.3 2576.52,-71.3"/>
</g>
<!-- MatListModule -->
<g id="node37" class="node">
<title>MatListModule</title>
<polygon fill="#8dd3c7" stroke="black" points="2546.88,-152.8 2543.88,-156.8 2522.88,-156.8 2519.88,-152.8 2443.12,-152.8 2443.12,-116.8 2546.88,-116.8 2546.88,-152.8"/>
<text text-anchor="middle" x="2495" y="-130.6" font-family="Times,serif" font-size="14.00">MatListModule</text>
</g>
<!-- MatListModule&#45;&gt;MaterialModule -->
<g id="edge40" class="edge">
<title>MatListModule&#45;&gt;MaterialModule</title>
<path fill="none" stroke="black" d="M2495,-116.68C2495,-102.02 2495,-83.8 2495,-83.8 2495,-83.8 2576.42,-83.8 2576.42,-83.8"/>
<polygon fill="black" stroke="black" points="2576.42,-87.3 2586.42,-83.8 2576.42,-80.3 2576.42,-87.3"/>
</g>
</g>
</svg>
